<?xml version="1.0" encoding="UTF-8" standalone="no"?>
<!DOCTYPE svg PUBLIC "-//W3C//DTD SVG 1.1//EN" "http://www.w3.org/Graphics/SVG/1.1/DTD/svg11.dtd">
<svg width="100%" height="100%" viewBox="0 0 339 65" version="1.1" xmlns="http://www.w3.org/2000/svg" xmlns:xlink="http://www.w3.org/1999/xlink" xml:space="preserve" xmlns:serif="http://www.serif.com/" style="fill-rule:evenodd;clip-rule:evenodd;stroke-linejoin:round;stroke-miterlimit:2;">
    <g transform="matrix(1,0,0,1,-9.37038,0.01)">
        <path d="M331.44,51.05C328.36,51.05 325.8,50.87 323.76,50.51C321.72,50.15 320.11,49.56 318.93,48.74C317.75,47.92 316.89,46.84 316.35,45.48C315.81,44.12 315.45,42.42 315.3,40.38C315.14,38.34 315.06,35.92 315.06,33.1C315.06,30.29 315.14,27.88 315.3,25.86C315.46,23.84 315.81,22.15 316.35,20.79C316.89,19.43 317.76,18.34 318.93,17.53C320.1,16.72 321.72,16.14 323.76,15.8C325.8,15.46 328.36,15.29 331.44,15.29C334.57,15.29 337.15,15.46 339.19,15.8C341.23,16.14 342.84,16.72 344.02,17.53C345.2,18.35 346.06,19.43 346.6,20.79C347.14,22.15 347.49,23.84 347.65,25.86C347.81,27.88 347.89,30.29 347.89,33.1C347.89,35.91 347.81,38.34 347.65,40.38C347.49,42.42 347.14,44.12 346.6,45.48C346.06,46.84 345.19,47.93 344.02,48.74C342.84,49.56 341.23,50.15 339.19,50.51C337.15,50.87 334.57,51.05 331.44,51.05ZM331.44,42.76C332.8,42.76 333.86,42.67 334.64,42.49C335.41,42.31 335.95,41.9 336.27,41.27C336.59,40.64 336.78,39.66 336.85,38.35C336.92,37.04 336.95,35.29 336.95,33.11C336.95,30.93 336.92,29.21 336.85,27.94C336.78,26.67 336.59,25.72 336.27,25.08C335.95,24.45 335.41,24.04 334.64,23.86C333.87,23.68 332.8,23.59 331.44,23.59C330.08,23.59 329.03,23.68 328.28,23.86C327.53,24.04 327,24.45 326.68,25.08C326.36,25.72 326.17,26.67 326.1,27.94C326.03,29.21 326,30.93 326,33.11C326,35.29 326.03,37.03 326.1,38.35C326.17,39.67 326.36,40.64 326.68,41.27C327,41.91 327.53,42.31 328.28,42.49C329.03,42.67 330.08,42.76 331.44,42.76Z" style="fill:rgb(255,111,0);fill-rule:nonzero;"/>
        <path d="M296.62,8.76L296.62,-0.01L307.84,-0.01L307.84,8.76L296.62,8.76ZM296.76,50.51L296.76,15.83L307.78,15.83L307.78,50.51L296.76,50.51Z" style="fill:rgb(255,111,0);fill-rule:nonzero;"/>
        <path d="M268.88,50.53L268.88,15.83L279.22,15.83L279.49,21.75L280.1,21.75C280.73,20.07 281.54,18.76 282.51,17.81C283.48,16.86 284.68,16.2 286.08,15.84C287.48,15.48 289.12,15.3 290.98,15.3L290.98,25.3C288.12,25.3 285.88,25.66 284.25,26.39C282.62,27.12 281.46,28.35 280.78,30.1C280.1,31.85 279.76,34.28 279.76,37.41L279.76,50.53L268.88,50.53Z" style="fill:rgb(255,111,0);fill-rule:nonzero;"/>
        <path d="M238.83,51.05C236.65,51.05 234.82,50.71 233.32,50.03C231.82,49.35 230.7,48.24 229.95,46.7C229.2,45.16 228.83,43.14 228.83,40.65C228.83,38.02 229.14,35.92 229.75,34.36C230.36,32.8 231.46,31.67 233.05,30.99C234.64,30.31 236.88,29.97 239.78,29.97C240.19,29.97 240.77,29.98 241.51,30C242.26,30.02 243.11,30.05 244.06,30.07C245.01,30.09 245.96,30.12 246.92,30.14C247.87,30.16 248.73,30.2 249.5,30.24L249.5,28.95C249.5,27.64 249.4,26.62 249.19,25.89C248.99,25.17 248.6,24.63 248.03,24.29C247.46,23.95 246.61,23.75 245.48,23.68C244.35,23.61 242.85,23.58 240.99,23.58C239.95,23.58 238.8,23.6 237.56,23.65C236.31,23.7 235.09,23.75 233.89,23.82C232.69,23.89 231.68,23.97 230.86,24.06L230.86,16.38C232.72,16.06 234.81,15.8 237.15,15.6C239.48,15.4 241.94,15.29 244.53,15.29C247.43,15.29 249.84,15.47 251.77,15.83C253.7,16.19 255.25,16.75 256.43,17.5C257.61,18.25 258.48,19.19 259.05,20.32C259.62,21.45 259.99,22.79 260.17,24.33C260.35,25.87 260.44,27.62 260.44,29.57L260.44,50.51L249.97,50.51L249.7,46.43L249.16,46.43C248.3,47.79 247.3,48.81 246.17,49.49C245.04,50.17 243.83,50.6 242.57,50.78C241.3,50.96 240.05,51.05 238.83,51.05ZM243.99,43.3C244.81,43.3 245.52,43.24 246.13,43.13C246.74,43.02 247.26,42.81 247.69,42.52C248.12,42.23 248.47,41.85 248.74,41.4C248.97,40.9 249.15,40.29 249.28,39.56C249.42,38.84 249.48,37.97 249.48,36.98L249.48,35.69L243.16,35.69C242.03,35.69 241.16,35.77 240.58,35.93C239.99,36.09 239.59,36.45 239.39,37.02C239.19,37.59 239.08,38.46 239.08,39.64C239.08,40.64 239.19,41.41 239.42,41.95C239.65,42.49 240.11,42.86 240.81,43.04C241.53,43.21 242.59,43.3 243.99,43.3Z" style="fill:rgb(255,111,0);fill-rule:nonzero;"/>
        <path d="M200.81,50.51L190.34,15.83L201.49,15.83L207.95,40.79L208.63,40.79L214.89,15.83L225.91,15.83L215.51,50.51L200.81,50.51Z" style="fill:rgb(255,111,0);fill-rule:nonzero;"/>
        <path d="M171.98,51.05C168.72,51.05 166.02,50.85 163.89,50.44C161.76,50.03 160.07,49.39 158.82,48.5C157.57,47.62 156.64,46.47 156.03,45.07C155.42,43.67 155.03,41.99 154.87,40.04C154.71,38.09 154.63,35.82 154.63,33.24C154.63,30.11 154.78,27.42 155.07,25.15C155.36,22.88 156.03,21.03 157.08,19.57C158.12,18.12 159.74,17.04 161.94,16.34C164.14,15.64 167.12,15.29 170.88,15.29C173.92,15.29 176.39,15.51 178.29,15.94C180.19,16.37 181.7,17.03 182.81,17.91C183.92,18.79 184.71,19.94 185.19,21.34C185.67,22.75 185.97,24.43 186.11,26.41C186.25,28.38 186.31,30.66 186.31,33.24L186.31,35.89L165.43,35.89C165.43,37.43 165.5,38.67 165.63,39.6C165.77,40.53 166.13,41.22 166.72,41.67C167.31,42.12 168.22,42.43 169.44,42.59C170.66,42.75 172.36,42.83 174.54,42.83C175.4,42.83 176.42,42.81 177.6,42.76C178.78,42.72 180.01,42.65 181.31,42.56C182.6,42.47 183.81,42.38 184.95,42.29L184.95,49.91C183.95,50.14 182.74,50.34 181.31,50.52C179.88,50.7 178.35,50.84 176.72,50.93C175.11,51.01 173.52,51.05 171.98,51.05ZM176.06,31.33L176.06,30.24C176.06,28.61 175.98,27.32 175.82,26.36C175.66,25.41 175.39,24.69 175,24.22C174.61,23.74 174.08,23.44 173.4,23.3C172.72,23.16 171.86,23.1 170.82,23.1C169.64,23.1 168.7,23.18 168,23.34C167.3,23.5 166.76,23.83 166.4,24.33C166.04,24.83 165.79,25.55 165.65,26.51C165.51,27.46 165.45,28.71 165.45,30.25L177.21,30.25L176.06,31.33Z" style="fill:rgb(55,65,80);fill-rule:nonzero;"/>
        <g transform="matrix(1.37361,0,0,1.37361,-115.195,-7.26913)">
            <text x="88.785px" y="42.316px" style="font-family:'Saira-Bold', 'Saira';font-weight:700;font-size:49.986px;fill:rgb(55,65,80);">space</text>
        </g>
    </g>
</svg>
