<?xml version="1.0" encoding="UTF-8"?>
<svg xmlns="http://www.w3.org/2000/svg" xmlns:xlink="http://www.w3.org/1999/xlink" version="1.1" x="0px" y="0px" viewBox="0 0 412.12 51.05" style="enable-background:new 0 0 412.12 51.05;" xml:space="preserve">
<style type="text/css">
	.st0{fill:#374150;}
	.st1{fill:#FF6F00;}
</style>
<g id="MultiBase">
	<g>
		<path class="st0" d="M0.03,50.52V15.84h10.34l0.27,4.22h0.61c0.63-1.18,1.44-2.12,2.41-2.82c0.97-0.7,2.07-1.2,3.3-1.5    c1.22-0.29,2.54-0.44,3.94-0.44c2.72,0,4.78,0.37,6.19,1.12c1.4,0.75,2.4,1.96,2.99,3.64h0.61c0.68-1.18,1.52-2.12,2.52-2.82    c1-0.7,2.12-1.2,3.37-1.5c1.25-0.29,2.57-0.44,3.98-0.44c2.95,0,5.13,0.52,6.56,1.56c1.43,1.04,2.38,2.56,2.86,4.56    c0.48,2,0.71,4.47,0.71,7.41v21.69H39.81V32.16c0-1.86-0.06-3.32-0.17-4.39c-0.11-1.06-0.31-1.85-0.58-2.35    c-0.27-0.5-0.7-0.8-1.29-0.92c-0.59-0.11-1.36-0.17-2.31-0.17c-1.04,0-1.88,0.13-2.52,0.37c-0.64,0.25-1.11,0.67-1.43,1.26    c-0.32,0.59-0.51,1.41-0.58,2.45c-0.07,1.04-0.1,2.38-0.1,4.01v18.09H19.88V32.16c0-1.86-0.05-3.32-0.14-4.39    c-0.09-1.06-0.28-1.85-0.58-2.35c-0.3-0.5-0.73-0.8-1.29-0.92c-0.57-0.11-1.33-0.17-2.28-0.17c-1.04,0-1.88,0.13-2.52,0.37    c-0.64,0.25-1.11,0.67-1.43,1.26c-0.32,0.59-0.52,1.42-0.61,2.48c-0.09,1.07-0.14,2.39-0.14,3.98v18.09H0.03z"></path>
		<path class="st0" d="M69.73,51.07c-2.31,0-4.17-0.3-5.58-0.88c-1.41-0.59-2.47-1.45-3.2-2.58c-0.73-1.13-1.2-2.54-1.43-4.22    c-0.23-1.68-0.34-3.63-0.34-5.85V15.84h10.88V34.2c0,1.86,0.06,3.32,0.17,4.39c0.11,1.07,0.33,1.85,0.65,2.35    c0.32,0.5,0.79,0.81,1.43,0.92c0.63,0.11,1.5,0.17,2.58,0.17c1.18,0,2.12-0.12,2.82-0.37c0.7-0.25,1.21-0.67,1.53-1.26    c0.32-0.59,0.53-1.42,0.65-2.48c0.11-1.06,0.17-2.39,0.17-3.98V15.84h10.95v34.68h-10.4l-0.27-4.22h-0.61    c-0.64,1.18-1.45,2.12-2.45,2.82c-1,0.7-2.13,1.2-3.4,1.5C72.6,50.92,71.22,51.07,69.73,51.07z"></path>
		<path class="st0" d="M99.37,50.52V0h11.02v50.52H99.37z"></path>
		<path class="st0" d="M122.29,50.52V24.14h-6.32v-8.3h6.32V5.78h11.02v10.06h7.55v8.3h-7.55v26.38H122.29z"></path>
		<path class="st0" d="M146.36,8.77V0h11.22v8.77H146.36z M146.5,50.52V15.84h11.02v34.68H146.5z"></path>
		<path class="st1" d="M187.02,51.07c-1.27,0-2.54-0.13-3.81-0.37c-1.27-0.25-2.41-0.7-3.43-1.36c-1.02-0.66-1.89-1.64-2.62-2.96    h-0.61l-0.27,4.15h-10.34V0h10.88v19.52h0.54c0.77-1.18,1.64-2.06,2.62-2.65c0.97-0.59,2.07-1,3.3-1.22    c1.22-0.23,2.49-0.34,3.81-0.34c2.04,0,3.77,0.3,5.2,0.88c1.43,0.59,2.59,1.55,3.5,2.89c0.91,1.34,1.57,3.16,2.01,5.47    c0.43,2.31,0.65,5.21,0.65,8.7c0,3.49-0.22,6.38-0.65,8.67c-0.43,2.29-1.11,4.1-2.04,5.44c-0.93,1.34-2.11,2.29-3.54,2.86    C190.8,50.78,189.06,51.07,187.02,51.07z M182.13,42.09c1.22,0,2.2-0.08,2.92-0.24c0.72-0.16,1.26-0.52,1.6-1.09    c0.34-0.57,0.57-1.45,0.68-2.65c0.11-1.2,0.17-2.84,0.17-4.93c0-2.08-0.06-3.72-0.17-4.9c-0.11-1.18-0.34-2.05-0.68-2.62    c-0.34-0.57-0.87-0.94-1.6-1.12c-0.73-0.18-1.7-0.27-2.92-0.27s-2.19,0.13-2.89,0.37c-0.7,0.25-1.21,0.74-1.53,1.46    c-0.36,0.77-0.6,1.72-0.71,2.86c-0.11,1.13-0.17,2.54-0.17,4.22c0,1.63,0.06,3.04,0.17,4.22c0.11,1.18,0.35,2.13,0.71,2.86    c0.32,0.68,0.83,1.16,1.53,1.43C179.94,41.96,180.9,42.09,182.13,42.09z"></path>
		<path class="st1" d="M214.15,51.07c-2.18,0-4.01-0.34-5.51-1.02c-1.5-0.68-2.62-1.79-3.37-3.33c-0.75-1.54-1.12-3.56-1.12-6.05    c0-2.63,0.31-4.73,0.92-6.29c0.61-1.56,1.71-2.69,3.3-3.37c1.59-0.68,3.83-1.02,6.73-1.02c0.41,0,0.99,0.01,1.73,0.03    c0.75,0.02,1.6,0.05,2.55,0.07c0.95,0.02,1.9,0.05,2.86,0.07c0.95,0.02,1.81,0.06,2.58,0.1v-1.29c0-1.31-0.1-2.33-0.31-3.06    c-0.2-0.72-0.59-1.26-1.16-1.6c-0.57-0.34-1.42-0.54-2.55-0.61c-1.13-0.07-2.63-0.1-4.49-0.1c-1.04,0-2.19,0.02-3.43,0.07    c-1.25,0.05-2.47,0.1-3.67,0.17c-1.2,0.07-2.21,0.15-3.03,0.24v-7.68c1.86-0.32,3.95-0.58,6.29-0.78c2.33-0.2,4.79-0.31,7.38-0.31    c2.9,0,5.31,0.18,7.24,0.54c1.93,0.36,3.48,0.92,4.66,1.67c1.18,0.75,2.05,1.69,2.62,2.82c0.57,1.13,0.94,2.47,1.12,4.01    c0.18,1.54,0.27,3.29,0.27,5.24v20.94h-10.47l-0.27-4.08h-0.54c-0.86,1.36-1.86,2.38-2.99,3.06c-1.13,0.68-2.34,1.11-3.6,1.29    C216.63,50.98,215.38,51.07,214.15,51.07z M219.32,43.32c0.82,0,1.53-0.06,2.14-0.17c0.61-0.11,1.13-0.32,1.56-0.61    c0.43-0.29,0.78-0.67,1.05-1.12c0.23-0.5,0.41-1.11,0.54-1.84c0.14-0.72,0.2-1.59,0.2-2.58V35.7h-6.32c-1.13,0-2,0.08-2.58,0.24    c-0.59,0.16-0.99,0.52-1.19,1.09c-0.2,0.57-0.31,1.44-0.31,2.62c0,1,0.11,1.77,0.34,2.31c0.23,0.54,0.69,0.91,1.39,1.09    C216.86,43.23,217.92,43.32,219.32,43.32z"></path>
		<path class="st1" d="M257.67,51.07c-1.45,0-3.03-0.05-4.73-0.14c-1.7-0.09-3.35-0.2-4.96-0.34c-1.61-0.14-3.05-0.29-4.32-0.48    v-7.68c0.72,0.05,1.55,0.11,2.48,0.2c0.93,0.09,1.89,0.16,2.89,0.2c1,0.05,1.96,0.08,2.89,0.1c0.93,0.02,1.78,0.03,2.55,0.03    c2.13,0,3.66-0.07,4.59-0.2c0.93-0.14,1.52-0.42,1.77-0.85c0.25-0.43,0.37-1.01,0.37-1.73c0-0.72-0.08-1.25-0.24-1.56    c-0.16-0.32-0.48-0.54-0.95-0.68c-0.48-0.14-1.28-0.27-2.41-0.41l-8.09-1.02c-1.95-0.27-3.42-0.85-4.42-1.73    c-1-0.88-1.67-2.08-2.01-3.6c-0.34-1.52-0.51-3.3-0.51-5.34c0-2.4,0.36-4.29,1.09-5.68c0.72-1.38,1.73-2.42,3.03-3.13    c1.29-0.7,2.83-1.17,4.62-1.39c1.79-0.23,3.71-0.34,5.75-0.34c1.45,0,2.95,0.05,4.49,0.14c1.54,0.09,3.01,0.22,4.42,0.37    c1.41,0.16,2.56,0.33,3.47,0.51v7.62c-1.13-0.09-2.32-0.18-3.57-0.27c-1.25-0.09-2.44-0.16-3.57-0.2    c-1.13-0.04-2.08-0.07-2.86-0.07c-1.81,0-3.21,0.05-4.18,0.14c-0.97,0.09-1.63,0.32-1.97,0.68c-0.34,0.36-0.51,0.95-0.51,1.77    c0,0.64,0.06,1.12,0.17,1.46c0.11,0.34,0.4,0.58,0.85,0.71c0.45,0.14,1.16,0.27,2.11,0.41l8.16,1.02    c1.54,0.18,2.86,0.54,3.94,1.09s1.92,1.52,2.48,2.92c0.57,1.41,0.85,3.51,0.85,6.32c0,2.54-0.33,4.55-0.99,6.02    c-0.66,1.47-1.6,2.58-2.82,3.33s-2.66,1.24-4.32,1.46C261.56,50.95,259.71,51.07,257.67,51.07z"></path>
		<path class="st1" d="M294.39,51.07c-3.26,0-5.96-0.2-8.09-0.61c-2.13-0.41-3.82-1.05-5.07-1.94c-1.25-0.88-2.18-2.03-2.79-3.43    c-0.61-1.4-1-3.08-1.16-5.03c-0.16-1.95-0.24-4.22-0.24-6.8c0-3.13,0.15-5.82,0.44-8.09c0.29-2.27,0.96-4.12,2.01-5.58    c1.04-1.45,2.66-2.53,4.86-3.23c2.2-0.7,5.18-1.05,8.94-1.05c3.04,0,5.51,0.22,7.41,0.65c1.9,0.43,3.41,1.09,4.52,1.97    c1.11,0.88,1.9,2.03,2.38,3.43c0.48,1.41,0.78,3.09,0.92,5.07s0.2,4.25,0.2,6.83v2.65h-20.88c0,1.54,0.07,2.78,0.2,3.71    c0.14,0.93,0.5,1.62,1.09,2.07c0.59,0.45,1.5,0.76,2.72,0.92c1.22,0.16,2.92,0.24,5.1,0.24c0.86,0,1.88-0.02,3.06-0.07    c1.18-0.04,2.41-0.11,3.71-0.2c1.29-0.09,2.5-0.18,3.64-0.27v7.62c-1,0.23-2.21,0.43-3.64,0.61s-2.96,0.32-4.59,0.41    C297.52,51.02,295.93,51.07,294.39,51.07z M298.47,31.35v-1.09c0-1.63-0.08-2.92-0.24-3.88c-0.16-0.95-0.43-1.67-0.82-2.14    c-0.39-0.48-0.92-0.78-1.6-0.92c-0.68-0.14-1.54-0.2-2.58-0.2c-1.18,0-2.12,0.08-2.82,0.24c-0.7,0.16-1.24,0.49-1.6,0.99    c-0.36,0.5-0.61,1.22-0.75,2.18s-0.2,2.2-0.2,3.74h11.76L298.47,31.35z"></path>
	</g>
</g>
<g id="G63">
	<g>
		<path class="st0" d="M337.51,51.05c-2.43,0-4.5-0.14-6.2-0.42c-1.7-0.28-3.09-0.79-4.18-1.52c-1.08-0.73-1.93-1.76-2.55-3.08    c-0.62-1.32-1.05-3-1.3-5.05c-0.25-2.05-0.38-4.56-0.38-7.53c0-2.97,0.12-5.47,0.38-7.52c0.25-2.05,0.69-3.73,1.33-5.05    c0.63-1.32,1.5-2.34,2.6-3.08c1.1-0.73,2.49-1.24,4.17-1.52c1.68-0.28,3.73-0.42,6.12-0.42c1.13,0,2.35,0.05,3.65,0.15    c1.3,0.1,2.58,0.22,3.83,0.35c1.25,0.13,2.38,0.3,3.38,0.5v3.5c-1.07-0.17-2.15-0.31-3.25-0.43c-1.1-0.12-2.12-0.21-3.08-0.27    c-0.95-0.07-1.76-0.1-2.42-0.1c-2.07,0-3.83,0.05-5.28,0.15c-1.45,0.1-2.64,0.37-3.58,0.8c-0.93,0.43-1.65,1.14-2.15,2.12    c-0.5,0.98-0.86,2.34-1.08,4.07c-0.22,1.73-0.33,3.98-0.33,6.75c0,2.43,0.07,4.48,0.2,6.12c0.13,1.65,0.41,2.99,0.83,4.03    c0.42,1.03,1,1.83,1.75,2.4c0.75,0.57,1.75,0.94,3,1.12c1.25,0.18,2.79,0.27,4.62,0.27c0.7,0,1.47-0.02,2.3-0.05    c0.83-0.03,1.65-0.08,2.45-0.15c0.8-0.07,1.47-0.13,2-0.2V35.8h-7.8v-3.65h11.95v17.9c-1.1,0.2-2.31,0.38-3.62,0.52    c-1.32,0.15-2.62,0.27-3.9,0.35C339.71,51.01,338.55,51.05,337.51,51.05z"></path>
		<path class="st0" d="M370.26,51.05c-2.3,0-4.26-0.11-5.88-0.32c-1.62-0.22-2.95-0.68-4-1.4c-1.05-0.72-1.86-1.82-2.42-3.32    c-0.33-0.77-0.58-1.72-0.75-2.85c-0.17-1.13-0.29-2.48-0.38-4.02c-0.08-1.55-0.12-3.33-0.12-5.33c0-1.83,0.04-3.5,0.12-5    c0.08-1.5,0.22-2.83,0.4-4c0.18-1.17,0.42-2.2,0.72-3.1c0.57-1.57,1.38-2.77,2.45-3.6c1.07-0.83,2.43-1.42,4.1-1.75    c1.67-0.33,3.7-0.5,6.1-0.5c0.87,0,1.88,0.04,3.02,0.12c1.15,0.08,2.35,0.19,3.6,0.32c1.25,0.13,2.44,0.28,3.57,0.45v3.45    c-1.03-0.13-2.12-0.24-3.27-0.32c-1.15-0.08-2.25-0.16-3.3-0.23c-1.05-0.07-1.96-0.1-2.73-0.1c-2.33,0-4.19,0.17-5.58,0.5    c-1.38,0.33-2.42,0.95-3.12,1.85c-0.7,0.9-1.17,2.21-1.4,3.92c-0.23,1.72-0.35,3.98-0.35,6.78h0.3c0.37-0.4,0.88-0.79,1.55-1.18    c0.67-0.38,1.64-0.7,2.92-0.95s3.01-0.38,5.17-0.38c2.1,0,3.9,0.12,5.4,0.35c1.5,0.23,2.72,0.68,3.65,1.35    c0.93,0.67,1.61,1.63,2.03,2.9c0.42,1.27,0.62,2.95,0.62,5.05c0,2.2-0.16,4.03-0.47,5.5c-0.32,1.47-0.93,2.62-1.83,3.45    c-0.9,0.83-2.17,1.43-3.8,1.8C374.98,50.87,372.87,51.05,370.26,51.05z M369.87,47.35c1.73,0,3.17-0.07,4.3-0.2    c1.13-0.13,2.02-0.42,2.65-0.88s1.07-1.11,1.3-1.98c0.23-0.87,0.35-2.07,0.35-3.6c0-1.6-0.12-2.87-0.35-3.8    c-0.23-0.93-0.65-1.62-1.25-2.08c-0.6-0.45-1.47-0.73-2.6-0.85c-1.13-0.12-2.6-0.18-4.4-0.18c-1.97,0-3.53,0.1-4.7,0.3    c-1.17,0.2-2.03,0.52-2.58,0.97c-0.55,0.45-0.92,1.03-1.1,1.73c-0.18,0.7-0.28,1.55-0.28,2.55c0,1.83,0.14,3.28,0.42,4.35    c0.28,1.07,0.75,1.87,1.4,2.4c0.65,0.53,1.52,0.88,2.62,1.02C366.76,47.28,368.16,47.35,369.87,47.35z"></path>
		<path class="st0" d="M398.96,51.05c-1.03,0-2.17-0.04-3.42-0.12c-1.25-0.08-2.47-0.19-3.65-0.32c-1.18-0.13-2.22-0.27-3.12-0.4    v-3.45c1.13,0.1,2.32,0.2,3.55,0.3s2.4,0.18,3.5,0.23c1.1,0.05,2.05,0.08,2.85,0.08c1.97,0,3.63-0.12,5-0.38    c1.37-0.25,2.39-0.8,3.08-1.65c0.68-0.85,1.02-2.19,1.02-4.02c0-1.53-0.22-2.76-0.65-3.67c-0.43-0.92-1.13-1.57-2.1-1.95    c-0.97-0.38-2.25-0.57-3.85-0.57h-6.45v-3.75h6.45c1.13,0,2.17-0.15,3.1-0.45c0.93-0.3,1.68-0.87,2.25-1.7    c0.57-0.83,0.85-2.07,0.85-3.7c0-1.8-0.3-3.12-0.9-3.95c-0.6-0.83-1.58-1.38-2.92-1.62c-1.35-0.25-3.14-0.38-5.38-0.38    c-0.9,0-1.9,0.03-3,0.1c-1.1,0.07-2.19,0.14-3.28,0.23c-1.08,0.08-2.06,0.19-2.92,0.32v-3.5c0.9-0.17,1.93-0.31,3.1-0.42    c1.17-0.12,2.37-0.22,3.6-0.3c1.23-0.08,2.35-0.12,3.35-0.12c2.43,0,4.47,0.18,6.1,0.55c1.63,0.37,2.93,0.92,3.9,1.65    c0.97,0.73,1.66,1.67,2.08,2.8c0.42,1.13,0.62,2.48,0.62,4.05c0,2.5-0.51,4.37-1.53,5.6c-1.02,1.23-2.46,2.07-4.32,2.5v0.2    c1.27,0.23,2.37,0.63,3.3,1.2c0.93,0.57,1.66,1.42,2.17,2.55c0.52,1.13,0.78,2.63,0.78,4.5c0,1.47-0.18,2.79-0.53,3.98    c-0.35,1.18-0.99,2.19-1.92,3.02c-0.93,0.83-2.26,1.48-3.98,1.93C403.97,50.83,401.73,51.05,398.96,51.05z"></path>
	</g>
</g>
</svg>
