<?xml version="1.0" encoding="UTF-8" standalone="no"?>
<!DOCTYPE svg PUBLIC "-//W3C//DTD SVG 1.1//EN" "http://www.w3.org/Graphics/SVG/1.1/DTD/svg11.dtd">
<svg width="100%" height="100%" viewBox="0 0 678 421" version="1.1" xmlns="http://www.w3.org/2000/svg" xmlns:xlink="http://www.w3.org/1999/xlink" xml:space="preserve" xmlns:serif="http://www.serif.com/" style="fill-rule:evenodd;clip-rule:evenodd;stroke-linejoin:round;stroke-miterlimit:2;">
    <g transform="matrix(1,0,0,1,0,-0.537491)">
        <g transform="matrix(4.16667,0,0,4.16667,0,0)">
            <path d="M119.176,22.181L119.627,39.833C119.942,40.459 120.412,40.741 120.976,40.898C122.166,41.179 123.444,41.239 123.952,40.117C125.413,36.884 127.966,26.774 128.774,22.138L136.589,22.138C134.113,30.575 133.61,48.004 119.015,48.153C109.405,48.251 107.651,41.769 105.822,34.677C104.903,31.12 104.031,22.138 104.031,22.138L119.176,22.181Z" style="fill:white;fill-rule:nonzero;"/>
        </g>
        <g transform="matrix(4.16667,0,0,4.16667,0,0)">
            <path d="M0.637,22.138L13.416,22.138C13.768,22.138 14.053,22.423 14.053,22.775L14.051,31.11C14.051,31.11 14.009,31.217 14.259,31.36C14.508,31.501 14.65,31.409 14.65,31.409L15.397,30.96L26.311,22.14L34.833,22.14C34.833,22.14 35.032,22.14 35.208,22.461C35.431,22.867 35.132,23.186 35.132,23.186L27.656,30.063L41.56,47.406L41.522,47.79C41.421,47.956 41.195,48.004 41.195,48.004L25.713,48.004L14.799,34.847C14.799,34.847 14.618,34.681 14.345,34.752C14.071,34.824 14.051,34.997 14.051,34.997L14.053,47.366C14.053,47.718 13.768,48.003 13.416,48.003L0.637,48.003C0.285,48.003 0,47.718 0,47.366L0,22.775C0,22.423 0.285,22.138 0.637,22.138Z" style="fill:white;fill-rule:nonzero;"/>
        </g>
        <g transform="matrix(4.16667,0,0,4.16667,0,0)">
            <path d="M44.261,22.14L43.601,22.604L44.7,47.406L45.149,48.004L62.092,48.004L63.55,47.673L64.435,42.771L63.987,42.473L58.46,42.444L60.548,23.036L59.78,22.14L44.261,22.14Z" style="fill:white;fill-rule:nonzero;"/>
        </g>
        <g transform="matrix(4.16667,0,0,4.16667,0,0)">
            <path d="M74.472,22.14L67.425,47.555L67.724,48.004L73.854,48.004L76.694,42.771L87.688,42.77L90,48.004L101.663,48.004L102.11,47.705L96.92,22.14L74.472,22.14ZM82.713,31.388L85.317,37.688L79.385,37.688L82.713,31.388Z" style="fill:white;fill-rule:nonzero;"/>
        </g>
        <g transform="matrix(4.16667,0,0,4.16667,0,0)">
            <path d="M148.126,22.138L162.511,22.138L162.511,27.596L155.114,27.596C154.948,27.78 154.977,27.61 154.977,28.108C154.977,28.182 161.076,39.253 161.076,41.246C161.076,49.029 154.903,48.025 151.663,48.004L136.142,48.004L136.142,42.285L146.378,42.285C146.544,42.102 146.514,42.371 146.514,41.872C146.514,39.382 141.027,32.655 141.027,28.793C141.027,24.609 144.115,22.117 148.126,22.138Z" style="fill:white;fill-rule:nonzero;"/>
        </g>
        <g transform="matrix(4.16667,0,0,4.16667,0,0)">
            <path d="M2.702,64.993L7.879,76.131L13.055,64.993L15.763,64.993L15.763,78.644L13.675,78.644L13.675,73.329L13.871,67.592L8.672,78.644L7.074,78.644L1.886,67.618L2.092,73.329L2.092,78.644L0.005,78.644L0.005,64.993L2.702,64.993Z" style="fill:white;fill-rule:nonzero;"/>
        </g>
        <g transform="matrix(4.16667,0,0,4.16667,0,0)">
            <path d="M31.665,64.993L31.665,74.276C31.658,75.563 31.189,76.616 30.257,77.434C29.326,78.255 28.062,78.713 26.468,78.812L25.912,78.831C24.18,78.831 22.799,78.429 21.769,77.623C20.739,76.817 20.218,75.706 20.204,74.295L20.204,64.993L22.27,64.993L22.27,74.237C22.27,75.225 22.584,75.992 23.215,76.539C23.846,77.086 24.746,77.359 25.912,77.359C27.094,77.359 27.999,77.088 28.626,76.545C29.254,76 29.566,75.236 29.566,74.247L29.566,64.993L31.665,64.993Z" style="fill:white;fill-rule:nonzero;"/>
        </g>
        <g transform="matrix(4.16667,0,0,4.16667,0,0)">
            <path d="M38.129,77.173L45.634,77.173L45.634,78.644L36.03,78.644L36.03,64.993L38.129,64.993L38.129,77.173Z" style="fill:white;fill-rule:nonzero;"/>
        </g>
        <g transform="matrix(4.16667,0,0,4.16667,0,0)">
            <path d="M57.062,66.466L51.972,66.466L51.972,78.644L49.895,78.644L49.895,66.466L44.816,66.466L44.816,64.993L57.062,64.993L57.062,66.466Z" style="fill:white;fill-rule:nonzero;"/>
        </g>
        <g transform="matrix(4.16667,0,0,4.16667,0,0)">
            <rect x="60.634" y="64.993" width="2.087" height="13.651" style="fill:white;fill-rule:nonzero;"/>
        </g>
        <g transform="matrix(4.16667,0,0,4.16667,0,0)">
            <path d="M69.718,71.829L73.47,71.829C74.586,71.829 75.442,71.601 76.037,71.147C76.631,70.693 76.929,70.037 76.929,69.179C76.929,68.366 76.631,67.714 76.037,67.227C75.442,66.738 74.626,66.485 73.589,66.466L69.718,66.466L69.718,71.829ZM69.718,73.3L69.718,78.644L67.63,78.644L67.63,64.993L73.47,64.993C75.203,64.993 76.561,65.374 77.543,66.137C78.525,66.899 79.016,67.909 79.016,69.166C79.016,70.49 78.537,71.512 77.575,72.227C76.615,72.942 75.239,73.3 73.448,73.3L69.718,73.3Z" style="fill:white;fill-rule:nonzero;"/>
        </g>
        <g transform="matrix(4.16667,0,0,4.16667,0,0)">
            <path d="M84.02,73.601L89.404,73.601L86.707,67.216L84.02,73.601ZM90.023,75.072L83.389,75.072L81.9,78.644L79.747,78.644L85.793,64.993L87.621,64.993L93.677,78.644L91.536,78.644L90.023,75.072Z" style="fill:white;fill-rule:nonzero;"/>
        </g>
        <g transform="matrix(4.16667,0,0,4.16667,0,0)">
            <path d="M98.966,71.651L102.176,71.651C103.213,71.651 104.035,71.419 104.649,70.955C105.262,70.492 105.569,69.873 105.569,69.096C105.569,68.25 105.279,67.602 104.694,67.152C104.11,66.701 103.267,66.473 102.164,66.466L98.966,66.466L98.966,71.651ZM102.686,73.122L98.966,73.122L98.966,78.644L96.867,78.644L96.867,64.993L102.11,64.993C103.894,64.993 105.266,65.343 106.228,66.044C107.189,66.744 107.666,67.764 107.666,69.1C107.666,69.95 107.4,70.691 106.87,71.321C106.335,71.953 105.594,72.426 104.645,72.739L108.362,78.532L108.362,78.644L106.124,78.644L102.686,73.122Z" style="fill:white;fill-rule:nonzero;"/>
        </g>
        <g transform="matrix(4.16667,0,0,4.16667,0,0)">
            <path d="M115.687,72.297L113.751,74.032L113.751,78.644L111.663,78.644L111.663,64.993L113.751,64.993L113.751,71.744L120.786,64.993L123.31,64.993L117.079,71.023L123.799,78.644L121.298,78.644L115.687,72.297Z" style="fill:white;fill-rule:nonzero;"/>
        </g>
        <g transform="matrix(4.16667,0,0,4.16667,0,0)">
            <rect x="126.868" y="64.993" width="2.089" height="13.651" style="fill:white;fill-rule:nonzero;"/>
        </g>
        <g transform="matrix(4.16667,0,0,4.16667,0,0)">
            <path d="M146.035,78.644L143.936,78.644L135.964,68.124L135.964,78.644L133.865,78.644L133.865,64.993L135.964,64.993L143.959,75.559L143.959,64.993L146.035,64.993L146.035,78.644Z" style="fill:white;fill-rule:nonzero;"/>
        </g>
        <g transform="matrix(4.16667,0,0,4.16667,0,0)">
            <path d="M162.527,76.854C161.99,77.517 161.242,78.012 160.281,78.34C159.321,78.667 158.202,78.831 156.926,78.831C155.635,78.831 154.489,78.572 153.49,78.049C152.489,77.527 151.714,76.785 151.167,75.822C150.62,74.86 150.339,73.744 150.324,72.475L150.324,71.284C150.324,69.228 150.882,67.635 151.994,66.504C153.107,65.372 154.671,64.807 156.688,64.807C158.339,64.807 159.669,65.171 160.678,65.899C161.685,66.626 162.303,67.66 162.527,68.996L160.438,68.996C160.046,67.185 158.801,66.278 156.698,66.278C155.299,66.278 154.238,66.703 153.517,67.55C152.796,68.398 152.431,69.624 152.423,71.232L152.423,72.349C152.423,73.882 152.829,75.101 153.642,76.004C154.454,76.908 155.552,77.359 156.936,77.359C157.719,77.359 158.405,77.285 158.992,77.136C159.58,76.986 160.065,76.734 160.45,76.377L160.45,73.319L156.785,73.319L156.785,71.848L162.527,71.848L162.527,76.854Z" style="fill:white;fill-rule:nonzero;"/>
        </g>
        <g transform="matrix(4.16667,0,0,4.16667,0,0)">
            <rect x="0" y="55.197" width="162.511" height="2.603" style="fill:rgb(243,111,33);fill-rule:nonzero;"/>
        </g>
        <g transform="matrix(4.16667,0,0,4.16667,0,0)">
            <path d="M4.327,6.014C2.951,5.678 1.95,5.264 1.324,4.773C0.697,4.282 0.384,3.676 0.384,2.955C0.384,2.139 0.767,1.463 1.533,0.93C2.298,0.396 3.294,0.129 4.519,0.129C5.355,0.129 6.1,0.267 6.754,0.542C7.409,0.817 7.915,1.197 8.275,1.681C8.634,2.164 8.814,2.694 8.814,3.267L7.201,3.267C7.201,2.639 6.967,2.145 6.499,1.786C6.032,1.426 5.372,1.247 4.519,1.247C3.728,1.247 3.112,1.395 2.669,1.692C2.226,1.989 2.005,2.401 2.005,2.929C2.005,3.352 2.215,3.71 2.635,4.002C3.056,4.294 3.771,4.562 4.782,4.804C5.794,5.046 6.584,5.314 7.155,5.605C7.726,5.897 8.15,6.237 8.425,6.627C8.701,7.016 8.839,7.473 8.839,8C8.839,8.84 8.454,9.512 7.686,10.018C6.917,10.523 5.889,10.775 4.603,10.775C3.768,10.775 2.987,10.639 2.264,10.366C1.539,10.093 0.981,9.72 0.588,9.245C0.196,8.771 0,8.232 0,7.63L1.612,7.63C1.612,8.256 1.883,8.751 2.426,9.114C2.969,9.476 3.695,9.658 4.603,9.658C5.449,9.658 6.098,9.511 6.549,9.217C7.001,8.923 7.226,8.522 7.226,8.014C7.226,7.507 7.017,7.114 6.6,6.836C6.182,6.559 5.424,6.285 4.327,6.014Z" style="fill:rgb(167,184,196);fill-rule:nonzero;"/>
        </g>
        <g transform="matrix(4.16667,0,0,4.16667,0,0)">
            <path d="M13.684,6.804L17.819,6.804L15.747,1.958L13.684,6.804ZM18.296,7.922L13.199,7.922L12.055,10.633L10.401,10.633L15.045,0.272L16.449,0.272L21.103,10.633L19.457,10.633L18.296,7.922Z" style="fill:rgb(167,184,196);fill-rule:nonzero;"/>
        </g>
        <g transform="matrix(4.16667,0,0,4.16667,0,0)">
            <path d="M25.037,9.516L30.801,9.516L30.801,10.633L23.425,10.633L23.425,0.272L25.037,0.272L25.037,9.516Z" style="fill:rgb(167,184,196);fill-rule:nonzero;"/>
        </g>
        <g transform="matrix(4.16667,0,0,4.16667,0,0)">
            <path d="M40.192,5.844L34.92,5.844L34.92,9.516L41.044,9.516L41.044,10.633L33.316,10.633L33.316,0.272L40.96,0.272L40.96,1.389L34.92,1.389L34.92,4.726L40.192,4.726L40.192,5.844Z" style="fill:rgb(167,184,196);fill-rule:nonzero;"/>
        </g>
        <g transform="matrix(4.16667,0,0,4.16667,0,0)">
            <path d="M47.309,6.014C45.933,5.678 44.932,5.264 44.306,4.773C43.679,4.282 43.366,3.676 43.366,2.955C43.366,2.139 43.748,1.463 44.514,0.93C45.28,0.396 46.276,0.129 47.501,0.129C48.337,0.129 49.082,0.267 49.736,0.542C50.391,0.817 50.897,1.197 51.257,1.681C51.616,2.164 51.795,2.694 51.795,3.267L50.183,3.267C50.183,2.639 49.949,2.145 49.481,1.786C49.014,1.426 48.353,1.247 47.501,1.247C46.71,1.247 46.094,1.395 45.651,1.692C45.208,1.989 44.987,2.401 44.987,2.929C44.987,3.352 45.196,3.71 45.617,4.002C46.038,4.294 46.753,4.562 47.764,4.804C48.776,5.046 49.566,5.314 50.137,5.605C50.708,5.897 51.131,6.237 51.407,6.627C51.683,7.016 51.821,7.473 51.821,8C51.821,8.84 51.436,9.512 50.668,10.018C49.899,10.523 48.871,10.775 47.585,10.775C46.749,10.775 45.969,10.639 45.246,10.366C44.521,10.093 43.963,9.72 43.57,9.245C43.178,8.771 42.981,8.232 42.981,7.63L44.594,7.63C44.594,8.256 44.865,8.751 45.408,9.114C45.951,9.476 46.677,9.658 47.585,9.658C48.431,9.658 49.08,9.511 49.531,9.217C49.983,8.923 50.208,8.522 50.208,8.014C50.208,7.507 49.999,7.114 49.581,6.836C49.164,6.559 48.406,6.285 47.309,6.014Z" style="fill:rgb(167,184,196);fill-rule:nonzero;"/>
        </g>
        <g transform="matrix(4.16667,0,0,4.16667,0,0)">
            <path d="M61.085,5.459L63.967,5.459C64.824,5.459 65.482,5.287 65.939,4.942C66.395,4.598 66.624,4.1 66.624,3.449C66.624,2.831 66.395,2.337 65.939,1.966C65.482,1.596 64.855,1.403 64.059,1.389L61.085,1.389L61.085,5.459ZM61.085,6.577L61.085,10.633L59.481,10.633L59.481,0.272L63.967,0.272C65.298,0.272 66.341,0.561 67.096,1.14C67.85,1.719 68.228,2.485 68.228,3.438C68.228,4.444 67.859,5.219 67.121,5.762C66.383,6.305 65.326,6.577 63.95,6.577L61.085,6.577Z" style="fill:rgb(167,184,196);fill-rule:nonzero;"/>
        </g>
        <g transform="matrix(4.16667,0,0,4.16667,0,0)">
            <path d="M71.912,6.804L76.047,6.804L73.975,1.958L71.912,6.804ZM76.523,7.922L71.427,7.922L70.282,10.633L68.628,10.633L73.273,0.272L74.677,0.272L79.331,10.633L77.684,10.633L76.523,7.922Z" style="fill:rgb(167,184,196);fill-rule:nonzero;"/>
        </g>
        <g transform="matrix(4.16667,0,0,4.16667,0,0)">
            <path d="M83.257,5.324L85.721,5.324C86.517,5.324 87.151,5.148 87.622,4.797C88.092,4.445 88.328,3.974 88.328,3.385C88.328,2.743 88.103,2.252 87.655,1.909C87.207,1.567 86.559,1.393 85.713,1.389L83.257,1.389L83.257,5.324ZM86.114,6.441L83.257,6.441L83.257,10.633L81.644,10.633L81.644,0.272L85.671,0.272C87.041,0.272 88.095,0.538 88.833,1.068C89.571,1.6 89.94,2.373 89.94,3.388C89.94,4.034 89.736,4.596 89.326,5.075C88.917,5.554 88.347,5.912 87.618,6.149L90.475,10.548L90.475,10.633L88.754,10.633L86.114,6.441Z" style="fill:rgb(167,184,196);fill-rule:nonzero;"/>
        </g>
        <g transform="matrix(4.16667,0,0,4.16667,0,0)">
            <path d="M100.608,1.389L96.698,1.389L96.698,10.633L95.103,10.633L95.103,1.389L91.201,1.389L91.201,0.272L100.608,0.272L100.608,1.389Z" style="fill:rgb(167,184,196);fill-rule:nonzero;"/>
        </g>
        <g transform="matrix(4.16667,0,0,4.16667,0,0)">
            <path d="M112.446,10.633L110.834,10.633L104.71,2.649L104.71,10.633L103.097,10.633L103.097,0.272L104.71,0.272L110.851,8.292L110.851,0.272L112.446,0.272L112.446,10.633Z" style="fill:rgb(167,184,196);fill-rule:nonzero;"/>
        </g>
        <g transform="matrix(4.16667,0,0,4.16667,0,0)">
            <path d="M122.855,5.844L117.582,5.844L117.582,9.516L123.707,9.516L123.707,10.633L115.978,10.633L115.978,0.272L123.623,0.272L123.623,1.389L117.582,1.389L117.582,4.726L122.855,4.726L122.855,5.844Z" style="fill:rgb(167,184,196);fill-rule:nonzero;"/>
        </g>
        <g transform="matrix(4.16667,0,0,4.16667,0,0)">
            <path d="M127.992,5.324L130.457,5.324C131.253,5.324 131.887,5.148 132.358,4.797C132.828,4.445 133.063,3.974 133.063,3.385C133.063,2.743 132.84,2.252 132.391,1.909C131.943,1.567 131.295,1.393 130.449,1.389L127.992,1.389L127.992,5.324ZM130.849,6.441L127.992,6.441L127.992,10.633L126.38,10.633L126.38,0.272L130.407,0.272C131.777,0.272 132.831,0.538 133.569,1.068C134.307,1.6 134.676,2.373 134.676,3.388C134.676,4.034 134.471,4.596 134.062,5.075C133.653,5.554 133.083,5.912 132.353,6.149L135.21,10.548L135.21,10.633L133.49,10.633L130.849,6.441Z" style="fill:rgb(167,184,196);fill-rule:nonzero;"/>
        </g>
        <g transform="matrix(4.16667,0,0,4.16667,0,0)">
            <path d="M150.289,5.118C150.289,3.889 150,2.946 149.421,2.289C148.842,1.632 148.031,1.304 146.989,1.304C145.976,1.304 145.178,1.632 144.596,2.289C144.014,2.946 143.714,3.858 143.698,5.025L143.698,5.787C143.698,6.978 143.992,7.913 144.58,8.594C145.166,9.275 145.976,9.615 147.007,9.615C148.042,9.615 148.845,9.294 149.412,8.651C149.98,8.008 150.273,7.087 150.289,5.886L150.289,5.118ZM151.885,5.787C151.885,6.802 151.684,7.688 151.284,8.445C150.883,9.202 150.315,9.779 149.579,10.177C148.845,10.576 147.987,10.775 147.007,10.775C146.049,10.775 145.199,10.575 144.458,10.174C143.717,9.773 143.142,9.202 142.733,8.459C142.324,7.717 142.113,6.857 142.102,5.879L142.102,5.132C142.102,4.136 142.305,3.256 142.712,2.492C143.119,1.728 143.694,1.143 144.437,0.738C145.181,0.332 146.031,0.129 146.989,0.129C147.964,0.129 148.823,0.33 149.566,0.731C150.311,1.132 150.883,1.713 151.284,2.474C151.684,3.235 151.885,4.121 151.885,5.132L151.885,5.787Z" style="fill:rgb(167,184,196);fill-rule:nonzero;"/>
        </g>
        <g transform="matrix(4.16667,0,0,4.16667,0,0)">
            <path d="M161.684,6.057L156.579,6.057L156.579,10.633L154.975,10.633L154.975,0.272L162.511,0.272L162.511,1.389L156.579,1.389L156.579,4.94L161.684,4.94L161.684,6.057Z" style="fill:rgb(167,184,196);fill-rule:nonzero;"/>
        </g>
        <g transform="matrix(4.16667,0,0,4.16667,0,0)">
            <path d="M47.188,96.87L49.643,96.87L48.412,93.165L47.188,96.87ZM50.303,98.858L46.529,98.858L45.87,100.854L42.928,100.854L47.117,90.172L49.706,90.172L53.927,100.854L50.97,100.854L50.303,98.858Z" style="fill:rgb(167,184,196);fill-rule:nonzero;"/>
        </g>
        <g transform="matrix(4.16667,0,0,4.16667,0,0)">
            <path d="M59.339,90.172L61.888,97.604L64.43,90.172L68.054,90.172L68.054,100.854L65.293,100.854L65.293,98.359L65.559,93.253L62.798,100.854L60.978,100.854L58.209,93.246L58.475,98.359L58.475,100.854L55.722,100.854L55.722,90.172L59.339,90.172Z" style="fill:rgb(167,184,196);fill-rule:nonzero;"/>
        </g>
        <g transform="matrix(4.16667,0,0,4.16667,0,0)">
            <path d="M77.851,96.32L73.521,96.32L73.521,98.873L78.636,98.873L78.636,100.854L70.767,100.854L70.767,90.172L78.652,90.172L78.652,92.16L73.521,92.16L73.521,94.412L77.851,94.412L77.851,96.32Z" style="fill:rgb(167,184,196);fill-rule:nonzero;"/>
        </g>
        <g transform="matrix(4.16667,0,0,4.16667,0,0)">
            <path d="M83.475,95.095L85.217,95.095C85.74,95.095 86.133,94.966 86.397,94.709C86.661,94.451 86.793,94.092 86.793,93.631C86.793,93.17 86.66,92.809 86.393,92.546C86.127,92.284 85.735,92.152 85.217,92.152L83.475,92.152L83.475,95.095ZM84.966,97.076L83.475,97.076L83.475,100.854L80.721,100.854L80.721,90.172L85.217,90.172C86.571,90.172 87.63,90.452 88.394,91.015C89.157,91.576 89.539,92.37 89.539,93.396C89.539,94.14 89.378,94.755 89.057,95.243C88.735,95.732 88.232,96.128 87.547,96.431L89.931,100.744L89.931,100.854L86.982,100.854L84.966,97.076Z" style="fill:rgb(167,184,196);fill-rule:nonzero;"/>
        </g>
        <g transform="matrix(4.16667,0,0,4.16667,0,0)">
            <rect x="92.355" y="90.172" width="2.745" height="10.682" style="fill:rgb(167,184,196);fill-rule:nonzero;"/>
        </g>
        <g transform="matrix(4.16667,0,0,4.16667,0,0)">
            <path d="M107.22,97.237C107.183,97.98 106.969,98.638 106.576,99.207C106.184,99.777 105.634,100.218 104.925,100.531C104.216,100.844 103.407,101 102.497,101C100.996,101 99.813,100.543 98.951,99.629C98.088,98.715 97.656,97.423 97.656,95.755L97.656,95.226C97.656,94.18 97.851,93.264 98.241,92.478C98.631,91.694 99.191,91.088 99.924,90.659C100.656,90.231 101.503,90.018 102.466,90.018C103.852,90.018 104.965,90.358 105.808,91.041C106.65,91.724 107.128,92.664 107.243,93.862L104.497,93.862C104.477,93.212 104.301,92.744 103.972,92.461C103.643,92.177 103.14,92.035 102.466,92.035C101.781,92.035 101.279,92.274 100.959,92.754C100.64,93.233 100.473,93.999 100.457,95.051L100.457,95.807C100.457,96.946 100.611,97.761 100.916,98.25C101.222,98.739 101.749,98.983 102.497,98.983C103.13,98.983 103.614,98.844 103.948,98.565C104.282,98.286 104.461,97.844 104.482,97.237L107.22,97.237Z" style="fill:rgb(167,184,196);fill-rule:nonzero;"/>
        </g>
        <g transform="matrix(4.16667,0,0,4.16667,0,0)">
            <path d="M112.86,96.87L115.315,96.87L114.083,93.165L112.86,96.87ZM115.974,98.858L112.2,98.858L111.541,100.854L108.6,100.854L112.789,90.172L115.377,90.172L119.598,100.854L116.641,100.854L115.974,98.858Z" style="fill:rgb(167,184,196);fill-rule:nonzero;"/>
        </g>
    </g>
</svg>
