<?xml version="1.0" encoding="UTF-8" standalone="no"?>
<!DOCTYPE svg PUBLIC "-//W3C//DTD SVG 1.1//EN" "http://www.w3.org/Graphics/SVG/1.1/DTD/svg11.dtd">
<svg width="100%" height="100%" viewBox="0 0 309 52" version="1.1" xmlns="http://www.w3.org/2000/svg" xmlns:xlink="http://www.w3.org/1999/xlink" xml:space="preserve" xmlns:serif="http://www.serif.com/" style="fill-rule:evenodd;clip-rule:evenodd;stroke-linejoin:round;stroke-miterlimit:2;">
    <g transform="matrix(1,0,0,1,-0.03,0)">
        <g>
            <path d="M0.03,50.52L0.03,15.84L10.37,15.84L10.64,20.06L11.25,20.06C11.88,18.88 12.69,17.94 13.66,17.24C14.63,16.54 15.73,16.04 16.96,15.74C18.18,15.45 19.5,15.3 20.9,15.3C23.62,15.3 25.68,15.67 27.09,16.42C28.49,17.17 29.49,18.38 30.08,20.06L30.69,20.06C31.37,18.88 32.21,17.94 33.21,17.24C34.21,16.54 35.33,16.04 36.58,15.74C37.83,15.45 39.15,15.3 40.56,15.3C43.51,15.3 45.69,15.82 47.12,16.86C48.55,17.9 49.5,19.42 49.98,21.42C50.46,23.42 50.69,25.89 50.69,28.83L50.69,50.52L39.81,50.52L39.81,32.16C39.81,30.3 39.75,28.84 39.64,27.77C39.53,26.71 39.33,25.92 39.06,25.42C38.79,24.92 38.36,24.62 37.77,24.5C37.18,24.39 36.41,24.33 35.46,24.33C34.42,24.33 33.58,24.46 32.94,24.7C32.3,24.95 31.83,25.37 31.51,25.96C31.19,26.55 31,27.37 30.93,28.41C30.86,29.45 30.83,30.79 30.83,32.42L30.83,50.51L19.88,50.51L19.88,32.16C19.88,30.3 19.83,28.84 19.74,27.77C19.65,26.71 19.46,25.92 19.16,25.42C18.86,24.92 18.43,24.62 17.87,24.5C17.3,24.39 16.54,24.33 15.59,24.33C14.55,24.33 13.71,24.46 13.07,24.7C12.43,24.95 11.96,25.37 11.64,25.96C11.32,26.55 11.12,27.38 11.03,28.44C10.94,29.51 10.89,30.83 10.89,32.42L10.89,50.51L0.03,50.51L0.03,50.52Z" style="fill:rgb(55,65,80);fill-rule:nonzero;"/>
            <path d="M69.73,51.07C67.42,51.07 65.56,50.77 64.15,50.19C62.74,49.6 61.68,48.74 60.95,47.61C60.22,46.48 59.75,45.07 59.52,43.39C59.29,41.71 59.18,39.76 59.18,37.54L59.18,15.84L70.06,15.84L70.06,34.2C70.06,36.06 70.12,37.52 70.23,38.59C70.34,39.66 70.56,40.44 70.88,40.94C71.2,41.44 71.67,41.75 72.31,41.86C72.94,41.97 73.81,42.03 74.89,42.03C76.07,42.03 77.01,41.91 77.71,41.66C78.41,41.41 78.92,40.99 79.24,40.4C79.56,39.81 79.77,38.98 79.89,37.92C80,36.86 80.06,35.53 80.06,33.94L80.06,15.84L91.01,15.84L91.01,50.52L80.61,50.52L80.34,46.3L79.73,46.3C79.09,47.48 78.28,48.42 77.28,49.12C76.28,49.82 75.15,50.32 73.88,50.62C72.6,50.92 71.22,51.07 69.73,51.07Z" style="fill:rgb(55,65,80);fill-rule:nonzero;"/>
            <rect x="99.37" y="0" width="11.02" height="50.52" style="fill:rgb(55,65,80);fill-rule:nonzero;"/>
            <path d="M122.29,50.52L122.29,24.14L115.97,24.14L115.97,15.84L122.29,15.84L122.29,5.78L133.31,5.78L133.31,15.84L140.86,15.84L140.86,24.14L133.31,24.14L133.31,50.52L122.29,50.52Z" style="fill:rgb(55,65,80);fill-rule:nonzero;"/>
            <path d="M146.36,8.77L146.36,0L157.58,0L157.58,8.77L146.36,8.77ZM146.5,50.52L146.5,15.84L157.52,15.84L157.52,50.52L146.5,50.52Z" style="fill:rgb(55,65,80);fill-rule:nonzero;"/>
            <path d="M187.02,51.07C185.75,51.07 184.48,50.94 183.21,50.7C181.94,50.45 180.8,50 179.78,49.34C178.76,48.68 177.89,47.7 177.16,46.38L176.55,46.38L176.28,50.53L165.94,50.53L165.94,0L176.82,0L176.82,19.52L177.36,19.52C178.13,18.34 179,17.46 179.98,16.87C180.95,16.28 182.05,15.87 183.28,15.65C184.5,15.42 185.77,15.31 187.09,15.31C189.13,15.31 190.86,15.61 192.29,16.19C193.72,16.78 194.88,17.74 195.79,19.08C196.7,20.42 197.36,22.24 197.8,24.55C198.23,26.86 198.45,29.76 198.45,33.25C198.45,36.74 198.23,39.63 197.8,41.92C197.37,44.21 196.69,46.02 195.76,47.36C194.83,48.7 193.65,49.65 192.22,50.22C190.8,50.78 189.06,51.07 187.02,51.07ZM182.13,42.09C183.35,42.09 184.33,42.01 185.05,41.85C185.77,41.69 186.31,41.33 186.65,40.76C186.99,40.19 187.22,39.31 187.33,38.11C187.44,36.91 187.5,35.27 187.5,33.18C187.5,31.1 187.44,29.46 187.33,28.28C187.22,27.1 186.99,26.23 186.65,25.66C186.31,25.09 185.78,24.72 185.05,24.54C184.32,24.36 183.35,24.27 182.13,24.27C180.91,24.27 179.94,24.4 179.24,24.64C178.54,24.89 178.03,25.38 177.71,26.1C177.35,26.87 177.11,27.82 177,28.96C176.89,30.09 176.83,31.5 176.83,33.18C176.83,34.81 176.89,36.22 177,37.4C177.11,38.58 177.35,39.53 177.71,40.26C178.03,40.94 178.54,41.42 179.24,41.69C179.94,41.96 180.9,42.09 182.13,42.09Z" style="fill:rgb(255,111,0);fill-rule:nonzero;"/>
            <path d="M214.15,51.07C211.97,51.07 210.14,50.73 208.64,50.05C207.14,49.37 206.02,48.26 205.27,46.72C204.52,45.18 204.15,43.16 204.15,40.67C204.15,38.04 204.46,35.94 205.07,34.38C205.68,32.82 206.78,31.69 208.37,31.01C209.96,30.33 212.2,29.99 215.1,29.99C215.51,29.99 216.09,30 216.83,30.02C217.58,30.04 218.43,30.07 219.38,30.09C220.33,30.11 221.28,30.14 222.24,30.16C223.19,30.18 224.05,30.22 224.82,30.26L224.82,28.97C224.82,27.66 224.72,26.64 224.51,25.91C224.31,25.19 223.92,24.65 223.35,24.31C222.78,23.97 221.93,23.77 220.8,23.7C219.67,23.63 218.17,23.6 216.31,23.6C215.27,23.6 214.12,23.62 212.88,23.67C211.63,23.72 210.41,23.77 209.21,23.84C208.01,23.91 207,23.99 206.18,24.08L206.18,16.4C208.04,16.08 210.13,15.82 212.47,15.62C214.8,15.42 217.26,15.31 219.85,15.31C222.75,15.31 225.16,15.49 227.09,15.85C229.02,16.21 230.57,16.77 231.75,17.52C232.93,18.27 233.8,19.21 234.37,20.34C234.94,21.47 235.31,22.81 235.49,24.35C235.67,25.89 235.76,27.64 235.76,29.59L235.76,50.53L225.29,50.53L225.02,46.45L224.48,46.45C223.62,47.81 222.62,48.83 221.49,49.51C220.36,50.19 219.15,50.62 217.89,50.8C216.63,50.98 215.38,51.07 214.15,51.07ZM219.32,43.32C220.14,43.32 220.85,43.26 221.46,43.15C222.07,43.04 222.59,42.83 223.02,42.54C223.45,42.25 223.8,41.87 224.07,41.42C224.3,40.92 224.48,40.31 224.61,39.58C224.75,38.86 224.81,37.99 224.81,37L224.81,35.7L218.49,35.7C217.36,35.7 216.49,35.78 215.91,35.94C215.32,36.1 214.92,36.46 214.72,37.03C214.52,37.6 214.41,38.47 214.41,39.65C214.41,40.65 214.52,41.42 214.75,41.96C214.98,42.5 215.44,42.87 216.14,43.05C216.86,43.23 217.92,43.32 219.32,43.32Z" style="fill:rgb(255,111,0);fill-rule:nonzero;"/>
            <path d="M257.67,51.07C256.22,51.07 254.64,51.02 252.94,50.93C251.24,50.84 249.59,50.73 247.98,50.59C246.37,50.45 244.93,50.3 243.66,50.11L243.66,42.43C244.38,42.48 245.21,42.54 246.14,42.63C247.07,42.72 248.03,42.79 249.03,42.83C250.03,42.88 250.99,42.91 251.92,42.93C252.85,42.95 253.7,42.96 254.47,42.96C256.6,42.96 258.13,42.89 259.06,42.76C259.99,42.62 260.58,42.34 260.83,41.91C261.08,41.48 261.2,40.9 261.2,40.18C261.2,39.46 261.12,38.93 260.96,38.62C260.8,38.3 260.48,38.08 260.01,37.94C259.53,37.8 258.73,37.67 257.6,37.53L249.51,36.51C247.56,36.24 246.09,35.66 245.09,34.78C244.09,33.9 243.42,32.7 243.08,31.18C242.74,29.66 242.57,27.88 242.57,25.84C242.57,23.44 242.93,21.55 243.66,20.16C244.38,18.78 245.39,17.74 246.69,17.03C247.98,16.33 249.52,15.86 251.31,15.64C253.1,15.41 255.02,15.3 257.06,15.3C258.51,15.3 260.01,15.35 261.55,15.44C263.09,15.53 264.56,15.66 265.97,15.81C267.38,15.97 268.53,16.14 269.44,16.32L269.44,23.94C268.31,23.85 267.12,23.76 265.87,23.67C264.62,23.58 263.43,23.51 262.3,23.47C261.17,23.43 260.22,23.4 259.44,23.4C257.63,23.4 256.23,23.45 255.26,23.54C254.29,23.63 253.63,23.86 253.29,24.22C252.95,24.58 252.78,25.17 252.78,25.99C252.78,26.63 252.84,27.11 252.95,27.45C253.06,27.79 253.35,28.03 253.8,28.16C254.25,28.3 254.96,28.43 255.91,28.57L264.07,29.59C265.61,29.77 266.93,30.13 268.01,30.68C269.09,31.23 269.93,32.2 270.49,33.6C271.06,35.01 271.34,37.11 271.34,39.92C271.34,42.46 271.01,44.47 270.35,45.94C269.69,47.41 268.75,48.52 267.53,49.27C266.31,50.02 264.87,50.51 263.21,50.73C261.56,50.95 259.71,51.07 257.67,51.07Z" style="fill:rgb(255,111,0);fill-rule:nonzero;"/>
            <path d="M294.39,51.07C291.13,51.07 288.43,50.87 286.3,50.46C284.17,50.05 282.48,49.41 281.23,48.52C279.98,47.64 279.05,46.49 278.44,45.09C277.83,43.69 277.44,42.01 277.28,40.06C277.12,38.11 277.04,35.84 277.04,33.26C277.04,30.13 277.19,27.44 277.48,25.17C277.77,22.9 278.44,21.05 279.49,19.59C280.53,18.14 282.15,17.06 284.35,16.36C286.55,15.66 289.53,15.31 293.29,15.31C296.33,15.31 298.8,15.53 300.7,15.96C302.6,16.39 304.11,17.05 305.22,17.93C306.33,18.81 307.12,19.96 307.6,21.36C308.08,22.77 308.38,24.45 308.52,26.43C308.66,28.41 308.72,30.68 308.72,33.26L308.72,35.91L287.84,35.91C287.84,37.45 287.91,38.69 288.04,39.62C288.18,40.55 288.54,41.24 289.13,41.69C289.72,42.14 290.63,42.45 291.85,42.61C293.07,42.77 294.77,42.85 296.95,42.85C297.81,42.85 298.83,42.83 300.01,42.78C301.19,42.74 302.42,42.67 303.72,42.58C305.01,42.49 306.22,42.4 307.36,42.31L307.36,49.93C306.36,50.16 305.15,50.36 303.72,50.54C302.29,50.72 300.76,50.86 299.13,50.95C297.52,51.02 295.93,51.07 294.39,51.07ZM298.47,31.35L298.47,30.26C298.47,28.63 298.39,27.34 298.23,26.38C298.07,25.43 297.8,24.71 297.41,24.24C297.02,23.76 296.49,23.46 295.81,23.32C295.13,23.18 294.27,23.12 293.23,23.12C292.05,23.12 291.11,23.2 290.41,23.36C289.71,23.52 289.17,23.85 288.81,24.35C288.45,24.85 288.2,25.57 288.06,26.53C287.92,27.49 287.86,28.73 287.86,30.27L299.62,30.27L298.47,31.35Z" style="fill:rgb(255,111,0);fill-rule:nonzero;"/>
        </g>
    </g>
</svg>
