<?xml version="1.0" encoding="UTF-8" standalone="no"?>
<!DOCTYPE svg PUBLIC "-//W3C//DTD SVG 1.1//EN" "http://www.w3.org/Graphics/SVG/1.1/DTD/svg11.dtd">
<svg width="100%" height="100%" viewBox="0 0 253 98" version="1.1" xmlns="http://www.w3.org/2000/svg" xmlns:xlink="http://www.w3.org/1999/xlink" xml:space="preserve" xmlns:serif="http://www.serif.com/" style="fill-rule:evenodd;clip-rule:evenodd;stroke-linejoin:round;stroke-miterlimit:2;">
    <g transform="matrix(1,0,0,1,-0.001,-1.13687e-13)">
        <g transform="matrix(1,0,0,1,-453.057,-523.005)">
            <g transform="matrix(2,0,0,2,465.703,553.689)">
                <path d="M0,-5.223C1.417,-4.598 2.763,-3.816 4.014,-2.881C4.167,-2.766 4.32,-2.65 4.47,-2.53C4.965,-2.139 5.445,-1.723 5.906,-1.283C5.981,-1.213 6.054,-1.142 6.127,-1.07C7.026,-0.189 7.826,0.762 8.534,1.766C9.239,1.384 9.981,1.063 10.744,0.783C9.973,-0.354 9.098,-1.435 8.11,-2.437C8.014,-2.535 7.917,-2.633 7.819,-2.729C7.479,-3.061 7.13,-3.383 6.774,-3.692C6.594,-3.848 6.412,-4.001 6.229,-4.15C4.851,-5.274 3.356,-6.219 1.779,-6.989C1.145,-6.406 0.552,-5.817 0,-5.223" style="fill:rgb(186,187,196);fill-rule:nonzero;"/>
            </g>
        </g>
        <g transform="matrix(1,0,0,1,-453.057,-523.005)">
            <g transform="matrix(2,0,0,2,502.776,530.417)">
                <path d="M0,11.494C-0.741,10.057 -1.592,8.684 -2.56,7.387C-2.879,6.96 -3.209,6.541 -3.553,6.13C-3.824,5.803 -4.104,5.482 -4.392,5.166C-4.783,4.734 -5.19,4.312 -5.61,3.901C-7.116,2.425 -8.756,1.122 -10.515,0C-11.281,0.466 -12.011,0.94 -12.705,1.421C-10.761,2.564 -8.946,3.947 -7.301,5.559C-7.272,5.588 -7.243,5.616 -7.214,5.645C-6.962,5.894 -6.716,6.147 -6.476,6.404C-6.089,6.815 -5.717,7.236 -5.36,7.667C-4.378,8.848 -3.51,10.101 -2.752,11.409C-2.49,11.397 -2.231,11.37 -1.965,11.37C-1.299,11.37 -0.646,11.419 0,11.494" style="fill:rgb(186,187,196);fill-rule:nonzero;"/>
            </g>
        </g>
        <g transform="matrix(1,0,0,1,-453.057,-523.005)">
            <g transform="matrix(2,0,0,2,521.982,523.005)">
                <path d="M0,19.677C-0.482,17.964 -1.226,15.63 -1.848,14.188C-1.997,13.842 -2.151,13.5 -2.31,13.16C-2.492,12.773 -2.679,12.39 -2.874,12.01C-3.236,11.303 -3.619,10.609 -4.026,9.928C-5.65,7.203 -7.627,4.694 -9.934,2.432C-10.806,1.577 -11.715,0.768 -12.659,0.006C-12.714,0.002 -12.77,0.003 -12.824,0C-13.634,0.343 -14.41,0.696 -15.165,1.053C-13.925,1.983 -12.742,2.995 -11.625,4.09C-10.05,5.635 -8.638,7.303 -7.4,9.082C-7.033,9.608 -6.682,10.144 -6.347,10.689C-6.104,11.084 -5.868,11.483 -5.641,11.888C-5.057,12.927 -4.526,14 -4.051,15.102C-3.737,15.829 -3.457,16.565 -3.196,17.307C-2.035,17.972 -0.96,18.765 0,19.677" style="fill:rgb(186,187,196);fill-rule:nonzero;"/>
            </g>
        </g>
        <g transform="matrix(1,0,0,1,-453.057,-523.005)">
            <g transform="matrix(2,0,0,2,545.13,594.807)">
                <path d="M-37.451,12.959C-38.094,12.465 -38.707,11.925 -39.293,11.35C-41.824,8.87 -43.693,5.914 -44.813,2.688C-45.617,0.372 -46.036,-2.085 -46.036,-4.604C-46.036,-10.63 -43.641,-16.296 -39.293,-20.557C-38.906,-20.937 -38.507,-21.301 -38.098,-21.649C-37.431,-21.186 -36.782,-20.701 -36.149,-20.196C-36.651,-19.789 -37.136,-19.357 -37.602,-18.899C-41.298,-15.276 -43.418,-10.522 -43.627,-5.433C-43.638,-5.157 -43.644,-4.882 -43.644,-4.604C-43.644,0.797 -41.498,5.873 -37.602,9.692C-36.28,10.988 -34.811,12.086 -33.225,12.959L-37.451,12.959Z" style="fill:rgb(186,187,196);"/>
            </g>
        </g>
        <g transform="matrix(1,0,0,1,-453.057,-523.005)">
            <g transform="matrix(2,0,0,2,545.13,594.807)">
                <path d="M-12.801,12.959C-11.22,12.082 -9.753,10.986 -8.433,9.692C-4.537,5.873 -2.392,0.797 -2.392,-4.604C-2.392,-4.882 -2.397,-5.157 -2.409,-5.433C-2.606,-10.263 -4.526,-14.791 -7.88,-18.336C-8.192,-19.78 -8.594,-21.189 -9.079,-22.562C-8.262,-21.951 -7.481,-21.281 -6.741,-20.557C-2.394,-16.296 0,-10.63 0,-4.604C0,-2.085 -0.418,0.372 -1.223,2.688C-2.343,5.914 -4.211,8.87 -6.741,11.35C-7.328,11.925 -7.94,12.465 -8.584,12.959L-12.801,12.959Z" style="fill:rgb(186,187,196);"/>
            </g>
        </g>
        <g transform="matrix(1,0,0,1,-453.057,-523.005)">
            <g transform="matrix(0,-2,-2,0,487.628,573.561)">
                <path d="M-2.906,-2.905C-4.895,-2.905 -6.507,-1.604 -6.507,-0.001C-6.507,1.605 -4.895,2.906 -2.906,2.906C-0.916,2.906 0.696,1.605 0.696,-0.001C0.696,-1.604 -0.916,-2.905 -2.906,-2.905" style="fill:rgb(186,187,196);fill-rule:nonzero;"/>
            </g>
        </g>
        <g transform="matrix(1,0,0,1,-453.057,-523.005)">
            <g transform="matrix(0,-2,-2,0,510.546,573.561)">
                <path d="M-2.906,-2.905C-4.895,-2.905 -6.507,-1.605 -6.507,-0C-6.507,1.605 -4.895,2.906 -2.906,2.906C-0.916,2.906 0.696,1.605 0.696,-0C0.696,-1.605 -0.916,-2.905 -2.906,-2.905" style="fill:rgb(186,187,196);fill-rule:nonzero;"/>
            </g>
        </g>
        <g transform="matrix(1,0,0,1,-453.057,-523.005)">
            <g transform="matrix(2,0,0,2,476.818,617.079)">
                <path d="M0,-8.393C0,-8.387 -0.002,-8.382 -0.002,-8.376C-0.002,-4.137 4.612,0 11.217,0C17.193,0 22.436,-4.54 22.436,-8.376C22.436,-8.382 22.435,-8.387 22.435,-8.393L19.968,-8.393C19.967,-8.387 19.966,-8.382 19.966,-8.376C19.966,-6.167 16.144,-2.425 11.217,-2.425C6.869,-2.425 2.468,-5.24 2.468,-8.376C2.468,-8.382 2.466,-8.387 2.466,-8.393L0,-8.393Z" style="fill:rgb(186,187,196);fill-rule:nonzero;"/>
            </g>
        </g>
        <g transform="matrix(1,0,0,1,-453.057,-523.005)">
            <g transform="matrix(2,0,0,2,568.832,549.737)">
                <path d="M0,14.569L0,0L6.849,0C7.785,0 8.544,0.109 9.128,0.328C9.711,0.547 10.165,0.868 10.489,1.292C10.813,1.715 11.032,2.223 11.148,2.816C11.263,3.409 11.321,4.073 11.321,4.807C11.321,5.499 11.267,6.141 11.159,6.734C11.05,7.327 10.838,7.842 10.521,8.28C10.204,8.717 9.747,9.056 9.149,9.296C8.552,9.536 7.763,9.656 6.784,9.656L3.068,9.656L3.068,14.569L0,14.569ZM3.068,7.221L5.574,7.221C6.193,7.221 6.683,7.186 7.043,7.115C7.403,7.045 7.669,6.921 7.842,6.744C8.015,6.568 8.126,6.328 8.177,6.024C8.227,5.721 8.253,5.315 8.253,4.807C8.253,4.327 8.227,3.932 8.177,3.621C8.126,3.311 8.022,3.067 7.864,2.89C7.705,2.714 7.446,2.594 7.086,2.53C6.726,2.467 6.251,2.435 5.66,2.435L3.068,2.435L3.068,7.221Z" style="fill:rgb(186,187,196);fill-rule:nonzero;"/>
            </g>
        </g>
        <g transform="matrix(1,0,0,1,-453.057,-523.005)">
            <g transform="matrix(2,0,0,2,600.978,549.737)">
                <path d="M0,14.569L5.034,0L9.139,0L14.172,14.569L11.018,14.569L9.938,11.35L4.126,11.35L3.068,14.569L0,14.569ZM4.904,8.915L9.139,8.915L7.086,2.731L6.957,2.731L4.904,8.915Z" style="fill:rgb(186,187,196);fill-rule:nonzero;"/>
            </g>
        </g>
        <g transform="matrix(1,0,0,1,-453.057,-523.005)">
            <g transform="matrix(2,0,0,2,642.156,549.737)">
                <path d="M0,14.569L0,0L7.086,0C8.051,0 8.825,0.102 9.409,0.307C9.992,0.512 10.438,0.815 10.748,1.217C11.058,1.62 11.267,2.11 11.375,2.689C11.483,3.268 11.537,3.903 11.537,4.595C11.537,5.103 11.49,5.64 11.396,6.204C11.302,6.769 11.108,7.292 10.813,7.771C10.518,8.252 10.053,8.605 9.42,8.83L11.796,14.569L8.555,14.569L6.287,8.703L7.065,9.127C6.964,9.169 6.845,9.197 6.708,9.211C6.571,9.226 6.417,9.233 6.244,9.233L3.068,9.233L3.068,14.569L0,14.569ZM3.068,6.818L5.855,6.818C6.445,6.818 6.917,6.78 7.27,6.702C7.623,6.625 7.886,6.505 8.058,6.342C8.231,6.18 8.343,5.958 8.393,5.675C8.444,5.393 8.469,5.04 8.469,4.616C8.469,4.179 8.444,3.822 8.393,3.547C8.343,3.271 8.238,3.053 8.08,2.89C7.921,2.728 7.666,2.612 7.313,2.541C6.96,2.47 6.481,2.435 5.876,2.435L3.068,2.435L3.068,6.818Z" style="fill:rgb(186,187,196);fill-rule:nonzero;"/>
            </g>
        </g>
        <g transform="matrix(1,0,0,1,-453.057,-523.005)">
            <g transform="matrix(2,0,0,2,679.962,549.737)">
                <path d="M0,14.569L0,0L3.068,0L3.068,5.929L4.623,5.929L9.139,0L12.487,0L7.086,6.967L12.552,14.569L9.031,14.569L4.623,8.364L3.068,8.364L3.068,14.569L0,14.569Z" style="fill:rgb(186,187,196);fill-rule:nonzero;"/>
            </g>
        </g>
        <g transform="matrix(1,0,0,1,-453.057,-523.005)">
            <g transform="matrix(2,0,0,2,608.408,590.711)">
                <path d="M0,10.249C-0.386,10.249 -0.8,10.239 -1.24,10.22C-1.681,10.2 -2.117,10.171 -2.547,10.132C-2.978,10.094 -3.372,10.055 -3.728,10.016L-3.728,8.4C-3.362,8.429 -2.988,8.458 -2.607,8.487C-2.226,8.516 -1.862,8.536 -1.515,8.546C-1.168,8.555 -0.872,8.56 -0.624,8.56C-0.119,8.56 0.272,8.538 0.55,8.495C0.827,8.451 1.035,8.385 1.173,8.298C1.272,8.221 1.344,8.133 1.389,8.036C1.433,7.939 1.46,7.827 1.47,7.701C1.48,7.575 1.485,7.43 1.485,7.264C1.485,7.041 1.475,6.857 1.456,6.711C1.436,6.566 1.394,6.452 1.329,6.369C1.265,6.287 1.166,6.226 1.032,6.187C0.899,6.148 0.728,6.119 0.52,6.1L-1.782,5.838C-2.228,5.779 -2.599,5.675 -2.896,5.525C-3.193,5.374 -3.424,5.178 -3.587,4.935C-3.75,4.693 -3.864,4.406 -3.929,4.076C-3.993,3.746 -4.025,3.372 -4.025,2.955C-4.025,2.305 -3.929,1.783 -3.736,1.39C-3.542,0.997 -3.275,0.698 -2.934,0.495C-2.592,0.291 -2.191,0.158 -1.73,0.094C-1.27,0.031 -0.768,0 -0.223,0C0.173,0 0.577,0.012 0.988,0.036C1.399,0.06 1.79,0.092 2.161,0.131C2.532,0.17 2.847,0.218 3.104,0.276L3.104,1.863C2.847,1.834 2.555,1.805 2.228,1.776C1.901,1.747 1.56,1.725 1.203,1.71C0.847,1.696 0.51,1.688 0.193,1.688C-0.272,1.688 -0.641,1.705 -0.913,1.739C-1.186,1.774 -1.391,1.834 -1.53,1.921C-1.708,2.009 -1.815,2.13 -1.849,2.285C-1.884,2.441 -1.901,2.635 -1.901,2.868C-1.901,3.159 -1.881,3.38 -1.842,3.53C-1.802,3.681 -1.708,3.783 -1.56,3.836C-1.411,3.889 -1.183,3.94 -0.876,3.989L1.426,4.236C1.703,4.275 1.958,4.326 2.191,4.389C2.423,4.452 2.636,4.557 2.83,4.702C3.023,4.848 3.179,5.057 3.297,5.328C3.366,5.454 3.421,5.61 3.461,5.794C3.5,5.979 3.535,6.182 3.565,6.405C3.594,6.629 3.609,6.876 3.609,7.148C3.609,7.711 3.55,8.182 3.431,8.56C3.312,8.939 3.149,9.24 2.941,9.463C2.733,9.686 2.478,9.856 2.176,9.972C1.874,10.089 1.542,10.164 1.181,10.198C0.819,10.232 0.426,10.249 0,10.249" style="fill:rgb(186,187,196);fill-rule:nonzero;"/>
            </g>
        </g>
        <g transform="matrix(1,0,0,1,-453.057,-523.005)">
            <g transform="matrix(2,0,0,2,624.3,590.943)">
                <path d="M0,10.016L0,0L2.896,0L5.406,6.609L5.496,6.609L8.02,0L10.902,0L10.902,10.016L8.852,10.016L8.852,3.028L8.778,3.028L6.134,10.016L4.679,10.016L2.035,3.028L1.96,3.028L1.96,10.016L0,10.016Z" style="fill:rgb(186,187,196);fill-rule:nonzero;"/>
            </g>
        </g>
        <g transform="matrix(1,0,0,1,-453.057,-523.005)">
            <g transform="matrix(2,0,0,2,299.656,504.505)">
                <rect x="178.007" y="43.219" width="2.109" height="10.016" style="fill:rgb(186,187,196);"/>
            </g>
        </g>
        <g transform="matrix(1,0,0,1,-453.057,-523.005)">
            <g transform="matrix(2,0,0,2,669.422,590.943)">
                <path d="M0,10.016L0,0L2.109,0L2.109,8.254L6.387,8.254L6.387,10.016L0,10.016Z" style="fill:rgb(186,187,196);fill-rule:nonzero;"/>
            </g>
        </g>
        <g transform="matrix(1,0,0,1,-453.057,-523.005)">
            <g transform="matrix(2,0,0,2,690.068,590.943)">
                <path d="M0,10.016L0,0L6.981,0L6.981,1.688L2.109,1.688L2.109,4.134L6.283,4.134L6.283,5.809L2.109,5.809L2.109,8.327L6.981,8.327L6.981,10.016L0,10.016Z" style="fill:rgb(186,187,196);fill-rule:nonzero;"/>
            </g>
        </g>
        <g transform="matrix(1,0,0,1,-453.057,-523.005)">
            <g transform="matrix(2,0,0,2,584.326,594.549)">
                <path d="M0,6.38C0,6.38 0.144,5.009 -0.059,4.122L-1.915,4.124C-1.915,4.124 -1.827,4.623 -1.863,4.933L-3.466,3.611C-3.466,3.611 -2.557,3.548 -2.14,3.205C-1.723,2.862 -1.624,2.497 -1.555,1.887C-1.486,1.278 -1.522,0.087 -1.543,-0.148C-1.563,-0.384 -1.603,-1.155 -2.036,-1.533C-2.469,-1.91 -3.198,-2.008 -3.672,-2.024C-4.145,-2.04 -5.078,-2.078 -5.81,-1.971C-6.543,-1.863 -6.902,-1.654 -7.1,-1.332C-7.297,-1.01 -7.321,-0.687 -7.333,-0.499C-7.345,-0.31 -7.376,0.158 -7.368,0.582C-7.361,1.007 -7.361,1.635 -7.249,1.989C-7.136,2.343 -7.067,2.478 -6.595,2.833C-6.595,2.833 -7.297,2.926 -7.642,3.318C-7.987,3.711 -8.078,4.222 -8.085,5.02C-8.092,5.818 -8.081,6.677 -8.026,6.944C-7.971,7.211 -7.923,7.772 -7.251,8.113C-6.579,8.455 -5.649,8.411 -5.429,8.418C-5.208,8.425 -3.479,8.458 -3.195,8.451C-2.91,8.444 -1.997,8.425 -1.515,8.289C-1.033,8.152 -0.889,8.062 -0.64,7.852L-0.132,8.28L2.353,8.29L0,6.38ZM-4.201,-0.699C-3.41,-0.673 -3.495,-0.301 -3.472,0.124C-3.45,0.535 -3.415,1.655 -3.639,2.096C-3.798,2.41 -4.61,2.356 -4.61,2.356C-5.364,1.941 -5.464,1.698 -5.488,1.473C-5.512,1.248 -5.518,0.821 -5.519,0.019C-5.52,-0.783 -4.992,-0.725 -4.201,-0.699M-3.355,6.82C-3.956,6.84 -5.232,6.824 -5.336,6.82C-5.44,6.816 -6.04,6.918 -6.047,6.14C-6.054,5.362 -6.058,4.615 -5.998,4.418C-5.937,4.222 -5.853,4.003 -5.424,4.006L-2.786,6.305C-2.786,6.305 -2.753,6.8 -3.355,6.82" style="fill:rgb(186,187,196);fill-rule:nonzero;"/>
            </g>
        </g>
    </g>
</svg>
