<?xml version="1.0" encoding="UTF-8" standalone="no"?>
<!DOCTYPE svg PUBLIC "-//W3C//DTD SVG 1.1//EN" "http://www.w3.org/Graphics/SVG/1.1/DTD/svg11.dtd">
<svg width="100%" height="100%" viewBox="0 0 1677 267" version="1.1" xmlns="http://www.w3.org/2000/svg" xmlns:xlink="http://www.w3.org/1999/xlink" xml:space="preserve" xmlns:serif="http://www.serif.com/" style="fill-rule:evenodd;clip-rule:evenodd;stroke-linejoin:round;stroke-miterlimit:2;">
    <g transform="matrix(1,0,0,1,-236.762,-1710)">
        <g transform="matrix(4.16667,0,0,4.16667,236.637,1710)">
            <path d="M0.03,64.06L0.03,15.84L10.37,15.84L10.64,20.06L11.25,20.06C11.97,18.75 12.85,17.75 13.87,17.07C14.89,16.39 16.03,15.93 17.3,15.68C18.57,15.43 19.84,15.31 21.11,15.31C23.15,15.31 24.88,15.58 26.31,16.13C27.74,16.67 28.92,17.62 29.85,18.95C30.78,20.29 31.46,22.11 31.89,24.42C32.32,26.73 32.54,29.63 32.54,33.12C32.54,36.57 32.32,39.44 31.89,41.76C31.46,44.07 30.79,45.91 29.88,47.27C28.97,48.63 27.81,49.61 26.38,50.19C24.95,50.78 23.22,51.07 21.18,51.07C19.87,51.07 18.6,50.96 17.37,50.73C16.15,50.5 15.05,50.08 14.07,49.47C13.09,48.86 12.24,47.99 11.52,46.85L10.91,46.85L10.91,64.05L0.03,64.05L0.03,64.06ZM16.21,42.09C17.43,42.09 18.41,42 19.13,41.82C19.85,41.64 20.39,41.27 20.73,40.7C21.07,40.13 21.3,39.26 21.41,38.08C21.52,36.9 21.58,35.27 21.58,33.18C21.58,31.1 21.52,29.45 21.41,28.25C21.3,27.05 21.07,26.17 20.73,25.6C20.39,25.03 19.86,24.67 19.13,24.51C18.4,24.35 17.43,24.27 16.21,24.27C14.89,24.27 13.89,24.44 13.18,24.78C12.48,25.12 11.94,25.7 11.58,26.51C11.31,27.24 11.13,28.15 11.04,29.26C10.95,30.37 10.9,31.67 10.9,33.17C10.9,34.71 10.94,36.03 11.04,37.11C11.13,38.2 11.29,39.06 11.52,39.69C11.88,40.6 12.43,41.22 13.15,41.56C13.87,41.92 14.89,42.09 16.21,42.09Z" style="fill:rgb(55,65,80);fill-rule:nonzero;"/>
            <path d="M48.24,51.07C46.06,51.07 44.23,50.73 42.73,50.05C41.23,49.37 40.11,48.26 39.36,46.72C38.61,45.18 38.24,43.16 38.24,40.67C38.24,38.04 38.55,35.94 39.16,34.38C39.77,32.82 40.87,31.69 42.46,31.01C44.05,30.33 46.29,29.99 49.19,29.99C49.6,29.99 50.18,30 50.92,30.02C51.67,30.04 52.52,30.07 53.47,30.09C54.42,30.11 55.37,30.14 56.33,30.16C57.28,30.18 58.14,30.22 58.91,30.26L58.91,28.97C58.91,27.66 58.81,26.64 58.6,25.91C58.4,25.19 58.01,24.65 57.44,24.31C56.87,23.97 56.02,23.77 54.89,23.7C53.76,23.63 52.26,23.6 50.4,23.6C49.36,23.6 48.21,23.62 46.97,23.67C45.72,23.72 44.5,23.77 43.3,23.84C42.1,23.91 41.09,23.99 40.27,24.08L40.27,16.4C42.13,16.08 44.22,15.82 46.56,15.62C48.89,15.42 51.35,15.31 53.94,15.31C56.84,15.31 59.25,15.49 61.18,15.85C63.11,16.21 64.66,16.77 65.84,17.52C67.02,18.27 67.89,19.21 68.46,20.34C69.03,21.47 69.4,22.81 69.58,24.35C69.76,25.89 69.85,27.64 69.85,29.59L69.85,50.53L59.39,50.53L59.12,46.45L58.58,46.45C57.72,47.81 56.72,48.83 55.59,49.51C54.46,50.19 53.25,50.62 51.99,50.8C50.71,50.98 49.46,51.07 48.24,51.07ZM53.4,43.32C54.22,43.32 54.93,43.26 55.54,43.15C56.15,43.04 56.67,42.83 57.1,42.54C57.53,42.25 57.88,41.87 58.15,41.42C58.38,40.92 58.56,40.31 58.69,39.58C58.83,38.86 58.89,37.99 58.89,37L58.89,35.7L52.57,35.7C51.44,35.7 50.57,35.78 49.99,35.94C49.4,36.1 49,36.46 48.8,37.03C48.6,37.6 48.49,38.47 48.49,39.65C48.49,40.65 48.6,41.42 48.83,41.96C49.06,42.5 49.52,42.87 50.22,43.05C50.95,43.23 52,43.32 53.4,43.32Z" style="fill:rgb(55,65,80);fill-rule:nonzero;"/>
            <path d="M78.29,50.54L78.29,15.84L88.63,15.84L88.9,21.76L89.51,21.76C90.14,20.08 90.95,18.77 91.92,17.82C92.89,16.87 94.08,16.21 95.49,15.85C96.89,15.49 98.53,15.31 100.39,15.31L100.39,25.31C97.53,25.31 95.29,25.67 93.66,26.4C92.03,27.13 90.87,28.36 90.19,30.11C89.51,31.86 89.17,34.29 89.17,37.42L89.17,50.54L78.29,50.54Z" style="fill:rgb(55,65,80);fill-rule:nonzero;"/>
            <path d="M106.17,50.52L106.17,0L117.05,0L117.05,29.1L119.16,29.1L128.2,15.84L139.83,15.84L128.07,32.43L140.04,50.52L127.94,50.52L119.17,37.4L117.06,37.4L117.06,50.52L106.17,50.52Z" style="fill:rgb(55,65,80);fill-rule:nonzero;"/>
            <path d="M164.79,51.07C163.52,51.07 162.25,50.94 160.98,50.7C159.71,50.45 158.57,50 157.55,49.34C156.53,48.68 155.66,47.7 154.93,46.38L154.32,46.38L154.05,50.53L143.71,50.53L143.71,0L154.59,0L154.59,19.52L155.13,19.52C155.9,18.34 156.77,17.46 157.75,16.87C158.72,16.28 159.82,15.87 161.05,15.65C162.27,15.42 163.54,15.31 164.86,15.31C166.9,15.31 168.63,15.61 170.06,16.19C171.49,16.78 172.65,17.74 173.56,19.08C174.47,20.42 175.13,22.24 175.57,24.55C176,26.86 176.22,29.76 176.22,33.25C176.22,36.74 176,39.63 175.57,41.92C175.14,44.21 174.46,46.02 173.53,47.36C172.6,48.7 171.42,49.65 169.99,50.22C168.56,50.78 166.83,51.07 164.79,51.07ZM159.89,42.09C161.11,42.09 162.09,42.01 162.81,41.85C163.53,41.69 164.07,41.33 164.41,40.76C164.75,40.19 164.98,39.31 165.09,38.11C165.2,36.91 165.26,35.27 165.26,33.18C165.26,31.1 165.2,29.46 165.09,28.28C164.98,27.1 164.75,26.23 164.41,25.66C164.07,25.09 163.54,24.72 162.81,24.54C162.08,24.36 161.11,24.27 159.89,24.27C158.67,24.27 157.7,24.4 157,24.64C156.3,24.89 155.79,25.38 155.47,26.1C155.11,26.87 154.87,27.82 154.76,28.96C154.65,30.09 154.59,31.5 154.59,33.18C154.59,34.81 154.65,36.22 154.76,37.4C154.87,38.58 155.11,39.53 155.47,40.26C155.79,40.94 156.3,41.42 157,41.69C157.7,41.96 158.67,42.09 159.89,42.09Z" style="fill:rgb(255,111,0);fill-rule:nonzero;"/>
            <path d="M198.72,51.07C195.64,51.07 193.08,50.89 191.04,50.53C189,50.17 187.39,49.58 186.21,48.76C185.03,47.94 184.17,46.86 183.63,45.5C183.09,44.14 182.73,42.44 182.58,40.4C182.42,38.36 182.34,35.94 182.34,33.12C182.34,30.31 182.42,27.9 182.58,25.88C182.74,23.86 183.09,22.17 183.63,20.81C184.17,19.45 185.03,18.36 186.21,17.55C187.39,16.73 189,16.16 191.04,15.82C193.08,15.48 195.64,15.31 198.72,15.31C201.85,15.31 204.43,15.48 206.47,15.82C208.51,16.16 210.12,16.74 211.3,17.55C212.48,18.37 213.34,19.45 213.88,20.81C214.42,22.17 214.78,23.86 214.93,25.88C215.09,27.9 215.17,30.31 215.17,33.12C215.17,35.93 215.09,38.36 214.93,40.4C214.77,42.44 214.42,44.14 213.88,45.5C213.34,46.86 212.47,47.95 211.3,48.76C210.12,49.58 208.51,50.17 206.47,50.53C204.43,50.89 201.85,51.07 198.72,51.07ZM198.72,42.77C200.08,42.77 201.14,42.68 201.92,42.5C202.69,42.32 203.23,41.91 203.55,41.28C203.87,40.65 204.06,39.67 204.13,38.36C204.2,37.05 204.23,35.3 204.23,33.12C204.23,30.94 204.2,29.22 204.13,27.95C204.06,26.68 203.87,25.73 203.55,25.09C203.23,24.46 202.69,24.05 201.92,23.87C201.15,23.69 200.08,23.6 198.72,23.6C197.36,23.6 196.31,23.69 195.56,23.87C194.81,24.05 194.28,24.46 193.96,25.09C193.64,25.73 193.45,26.68 193.38,27.95C193.31,29.22 193.28,30.94 193.28,33.12C193.28,35.3 193.31,37.04 193.38,38.36C193.45,39.68 193.64,40.65 193.96,41.28C194.28,41.92 194.81,42.32 195.56,42.5C196.31,42.68 197.36,42.77 198.72,42.77Z" style="fill:rgb(255,111,0);fill-rule:nonzero;"/>
            <path d="M230.88,51.07C228.7,51.07 226.87,50.73 225.37,50.05C223.87,49.37 222.75,48.26 222,46.72C221.25,45.18 220.88,43.16 220.88,40.67C220.88,38.04 221.19,35.94 221.8,34.38C222.41,32.82 223.51,31.69 225.1,31.01C226.69,30.33 228.93,29.99 231.83,29.99C232.24,29.99 232.82,30 233.56,30.02C234.31,30.04 235.16,30.07 236.11,30.09C237.06,30.11 238.01,30.14 238.97,30.16C239.92,30.18 240.78,30.22 241.55,30.26L241.55,28.97C241.55,27.66 241.45,26.64 241.24,25.91C241.04,25.19 240.65,24.65 240.09,24.31C239.52,23.97 238.67,23.77 237.54,23.7C236.41,23.63 234.91,23.6 233.05,23.6C232.01,23.6 230.86,23.62 229.62,23.67C228.37,23.72 227.15,23.77 225.95,23.84C224.75,23.91 223.74,23.99 222.92,24.08L222.92,16.4C224.78,16.08 226.87,15.82 229.21,15.62C231.54,15.42 234,15.31 236.59,15.31C239.49,15.31 241.91,15.49 243.83,15.85C245.76,16.21 247.31,16.77 248.49,17.52C249.67,18.27 250.54,19.21 251.11,20.34C251.68,21.47 252.05,22.81 252.23,24.35C252.41,25.89 252.5,27.64 252.5,29.59L252.5,50.53L242.03,50.53L241.76,46.45L241.22,46.45C240.36,47.81 239.36,48.83 238.23,49.51C237.1,50.19 235.9,50.62 234.63,50.8C233.35,50.98 232.11,51.07 230.88,51.07ZM236.05,43.32C236.87,43.32 237.58,43.26 238.19,43.15C238.8,43.04 239.32,42.83 239.75,42.54C240.18,42.25 240.53,41.87 240.8,41.42C241.03,40.92 241.21,40.31 241.34,39.58C241.47,38.86 241.54,37.99 241.54,37L241.54,35.7L235.22,35.7C234.09,35.7 233.22,35.78 232.64,35.94C232.05,36.1 231.65,36.46 231.45,37.03C231.25,37.6 231.14,38.47 231.14,39.65C231.14,40.65 231.25,41.42 231.48,41.96C231.71,42.5 232.17,42.87 232.87,43.05C233.59,43.23 234.65,43.32 236.05,43.32Z" style="fill:rgb(255,111,0);fill-rule:nonzero;"/>
            <path d="M260.94,50.54L260.94,15.84L271.28,15.84L271.55,21.76L272.16,21.76C272.79,20.08 273.6,18.77 274.57,17.82C275.54,16.87 276.74,16.21 278.14,15.85C279.54,15.49 281.18,15.31 283.04,15.31L283.04,25.31C280.18,25.31 277.94,25.67 276.31,26.4C274.68,27.13 273.52,28.36 272.84,30.11C272.16,31.86 271.82,34.29 271.82,37.42L271.82,50.54L260.94,50.54Z" style="fill:rgb(255,111,0);fill-rule:nonzero;"/>
            <path d="M298.68,51.07C296.68,51.07 294.96,50.8 293.51,50.25C292.06,49.71 290.88,48.77 289.97,47.43C289.06,46.09 288.39,44.27 287.96,41.96C287.53,39.65 287.31,36.75 287.31,33.26C287.31,29.82 287.51,26.93 287.92,24.59C288.33,22.26 288.98,20.42 289.89,19.08C290.8,17.74 291.96,16.78 293.39,16.19C294.82,15.6 296.55,15.31 298.59,15.31C299.95,15.31 301.23,15.42 302.43,15.65C303.63,15.88 304.73,16.29 305.73,16.87C306.73,17.46 307.59,18.34 308.31,19.52L308.85,19.52L308.85,0L319.8,0L319.8,50.52L309.4,50.52L309.13,46.37L308.59,46.37C307.91,47.69 307.04,48.67 305.97,49.33C304.9,49.99 303.75,50.44 302.5,50.69C301.27,50.94 299.99,51.07 298.68,51.07ZM303.57,42.09C304.98,42.09 306.03,41.92 306.73,41.58C307.43,41.24 307.94,40.62 308.26,39.71C308.53,38.89 308.7,37.95 308.77,36.89C308.84,35.83 308.87,34.59 308.87,33.18C308.87,31.78 308.84,30.55 308.77,29.51C308.7,28.47 308.53,27.58 308.26,26.86C307.99,25.86 307.49,25.18 306.76,24.82C306.03,24.46 304.97,24.28 303.56,24.28C302.34,24.28 301.36,24.37 300.64,24.55C299.91,24.73 299.38,25.11 299.04,25.67C298.7,26.24 298.48,27.11 298.39,28.29C298.3,29.47 298.25,31.1 298.25,33.19C298.25,35.28 298.29,36.92 298.39,38.12C298.48,39.32 298.7,40.21 299.04,40.77C299.38,41.34 299.91,41.7 300.64,41.86C301.38,42.01 302.35,42.09 303.57,42.09Z" style="fill:rgb(255,111,0);fill-rule:nonzero;"/>
        </g>
        <g transform="matrix(4.17156,0,0,4.17156,230.472,409.808)">
            <g transform="matrix(50,0,0,50,338.005,362.02)">
                <path d="M0.1,-0L0.1,-0.688L0.401,-0.688C0.445,-0.688 0.48,-0.683 0.506,-0.672C0.533,-0.661 0.553,-0.645 0.566,-0.626C0.579,-0.607 0.587,-0.584 0.592,-0.558C0.597,-0.531 0.599,-0.502 0.599,-0.471C0.599,-0.441 0.597,-0.413 0.593,-0.387C0.588,-0.36 0.579,-0.337 0.566,-0.317C0.553,-0.297 0.533,-0.281 0.506,-0.27C0.479,-0.259 0.444,-0.253 0.399,-0.253L0.186,-0.253L0.186,-0L0.1,-0ZM0.186,-0.328L0.371,-0.328C0.404,-0.328 0.43,-0.331 0.449,-0.336C0.468,-0.341 0.482,-0.35 0.491,-0.362C0.5,-0.373 0.506,-0.388 0.509,-0.406C0.512,-0.424 0.513,-0.446 0.513,-0.471C0.513,-0.496 0.512,-0.518 0.509,-0.536C0.507,-0.554 0.501,-0.569 0.493,-0.58C0.484,-0.591 0.469,-0.6 0.451,-0.606C0.432,-0.611 0.406,-0.614 0.373,-0.614L0.186,-0.614L0.186,-0.328Z" style="fill:rgb(55,65,80);fill-rule:nonzero;"/>
            </g>
            <g transform="matrix(50,0,0,50,370.605,362.02)">
                <path d="M0.56,0.115L0.32,-0.218L0.413,-0.218L0.658,0.113L0.658,0.115L0.56,0.115ZM0.358,0.008C0.305,0.008 0.261,0.005 0.226,-0.001C0.191,-0.006 0.163,-0.016 0.142,-0.031C0.122,-0.046 0.107,-0.066 0.098,-0.093C0.089,-0.119 0.083,-0.153 0.08,-0.194C0.077,-0.234 0.076,-0.285 0.076,-0.344C0.076,-0.403 0.077,-0.454 0.08,-0.495C0.083,-0.536 0.089,-0.569 0.098,-0.596C0.107,-0.622 0.122,-0.642 0.142,-0.657C0.163,-0.672 0.191,-0.682 0.226,-0.688C0.261,-0.693 0.305,-0.696 0.358,-0.696C0.411,-0.696 0.456,-0.693 0.491,-0.688C0.526,-0.682 0.553,-0.672 0.574,-0.657C0.594,-0.642 0.609,-0.622 0.618,-0.596C0.627,-0.569 0.633,-0.536 0.636,-0.495C0.639,-0.454 0.64,-0.403 0.64,-0.344C0.64,-0.285 0.639,-0.234 0.636,-0.194C0.633,-0.153 0.627,-0.119 0.618,-0.093C0.609,-0.066 0.594,-0.046 0.574,-0.031C0.553,-0.016 0.526,-0.006 0.491,-0.001C0.456,0.005 0.411,0.008 0.358,0.008ZM0.358,-0.066C0.395,-0.066 0.425,-0.067 0.449,-0.07C0.473,-0.072 0.492,-0.077 0.506,-0.086C0.52,-0.095 0.531,-0.109 0.538,-0.129C0.545,-0.148 0.55,-0.175 0.552,-0.21C0.553,-0.245 0.554,-0.289 0.554,-0.344C0.554,-0.399 0.553,-0.443 0.552,-0.478C0.55,-0.513 0.545,-0.54 0.538,-0.56C0.531,-0.579 0.52,-0.593 0.506,-0.602C0.492,-0.611 0.473,-0.616 0.449,-0.619C0.425,-0.621 0.395,-0.622 0.358,-0.622C0.321,-0.622 0.291,-0.621 0.268,-0.619C0.244,-0.616 0.225,-0.611 0.211,-0.602C0.196,-0.593 0.186,-0.579 0.179,-0.56C0.172,-0.54 0.167,-0.513 0.165,-0.478C0.163,-0.443 0.162,-0.399 0.162,-0.344C0.162,-0.289 0.163,-0.245 0.165,-0.21C0.167,-0.175 0.172,-0.148 0.179,-0.129C0.186,-0.109 0.196,-0.095 0.211,-0.086C0.225,-0.077 0.244,-0.072 0.268,-0.07C0.291,-0.067 0.321,-0.066 0.358,-0.066Z" style="fill:rgb(55,65,80);fill-rule:nonzero;"/>
            </g>
        </g>
    </g>
</svg>
