<?xml version="1.0" encoding="UTF-8" standalone="no"?>
<!DOCTYPE svg PUBLIC "-//W3C//DTD SVG 1.1//EN" "http://www.w3.org/Graphics/SVG/1.1/DTD/svg11.dtd">
<svg width="100%" height="100%" viewBox="0 0 331 52" version="1.1" xmlns="http://www.w3.org/2000/svg" xmlns:xlink="http://www.w3.org/1999/xlink" xml:space="preserve" xmlns:serif="http://www.serif.com/" style="fill-rule:evenodd;clip-rule:evenodd;stroke-linejoin:round;stroke-miterlimit:2;">
    <g>
        <path d="M6.39,50.52L6.39,24.07L0,24.07L0,15.84L6.39,15.84L6.39,5.78L17.41,5.78L17.41,15.84L25.03,15.84L25.03,24.07L17.41,24.07L17.41,50.52L6.39,50.52Z" style="fill:rgb(55,65,80);fill-rule:nonzero;"/>
        <path d="M30.6,50.52L30.6,15.84L40.94,15.84L41.21,21.82L41.82,21.82C42.45,20.1 43.26,18.77 44.23,17.84C45.2,16.91 46.39,16.25 47.8,15.87C49.2,15.49 50.81,15.29 52.63,15.29L52.63,25.29C49.82,25.29 47.6,25.65 45.97,26.38C44.34,27.11 43.18,28.34 42.5,30.09C41.82,31.84 41.48,34.27 41.48,37.4L41.48,50.52L30.6,50.52Z" style="fill:rgb(55,65,80);fill-rule:nonzero;"/>
        <path d="M74.26,51.07C71.04,51.07 68.37,50.87 66.24,50.46C64.11,50.05 62.41,49.4 61.14,48.49C59.87,47.58 58.95,46.44 58.39,45.06C57.82,43.68 57.44,42.01 57.23,40.06C57.03,38.11 56.92,35.84 56.92,33.26C56.92,30.13 57.08,27.44 57.4,25.17C57.72,22.9 58.4,21.03 59.44,19.56C60.48,18.09 62.11,17.01 64.34,16.33C66.56,15.65 69.53,15.31 73.25,15.31C76.29,15.31 78.77,15.51 80.7,15.92C82.63,16.33 84.12,16.99 85.19,17.89C86.25,18.8 87.04,19.95 87.54,21.36C88.04,22.77 88.36,24.45 88.49,26.43C88.63,28.4 88.69,30.68 88.69,33.26L88.69,35.91L67.8,35.91C67.8,37.45 67.87,38.69 68,39.62C68.14,40.55 68.5,41.25 69.09,41.73C69.68,42.21 70.59,42.51 71.81,42.65C73.03,42.79 74.71,42.85 76.84,42.85C77.79,42.85 78.85,42.83 80,42.78C81.16,42.74 82.38,42.67 83.67,42.58C84.96,42.49 86.17,42.4 87.31,42.31L87.31,49.93C86.31,50.16 85.1,50.35 83.67,50.51C82.24,50.67 80.71,50.8 79.08,50.92C77.45,51.01 75.84,51.07 74.26,51.07ZM78.4,31.28L78.4,30.26C78.4,28.63 78.32,27.33 78.16,26.35C78,25.38 77.73,24.66 77.34,24.21C76.95,23.76 76.42,23.46 75.74,23.33C75.06,23.19 74.22,23.13 73.22,23.13C72,23.13 71.02,23.21 70.3,23.37C69.57,23.53 69.04,23.85 68.7,24.32C68.36,24.79 68.12,25.52 67.99,26.5C67.85,27.48 67.79,28.73 67.79,30.27L79.55,30.27L78.4,31.28Z" style="fill:rgb(55,65,80);fill-rule:nonzero;"/>
        <path d="M96.02,50.52L96.02,15.84L106.36,15.84L106.63,20.06L107.24,20.06C107.92,18.84 108.76,17.88 109.76,17.2C110.76,16.52 111.9,16.03 113.19,15.74C114.48,15.45 115.85,15.3 117.3,15.3C119.61,15.3 121.46,15.6 122.84,16.18C124.22,16.77 125.28,17.64 126,18.8C126.72,19.96 127.2,21.36 127.43,23.02C127.66,24.68 127.77,26.61 127.77,28.83L127.77,50.52L116.89,50.52L116.89,32.16C116.89,30.3 116.84,28.84 116.75,27.77C116.66,26.71 116.45,25.92 116.14,25.42C115.82,24.92 115.33,24.6 114.68,24.47C114.02,24.33 113.15,24.27 112.06,24.27C110.88,24.27 109.95,24.41 109.27,24.68C108.59,24.95 108.09,25.39 107.77,26.01C107.45,26.62 107.23,27.45 107.09,28.49C106.95,29.53 106.89,30.87 106.89,32.5L106.89,50.52L96.02,50.52Z" style="fill:rgb(55,65,80);fill-rule:nonzero;"/>
        <path d="M146.4,51.07C144.36,51.07 142.64,50.8 141.23,50.25C139.82,49.71 138.66,48.77 137.73,47.43C136.8,46.09 136.11,44.27 135.66,41.96C135.21,39.65 134.98,36.77 134.98,33.32C134.98,29.83 135.19,26.92 135.63,24.58C136.06,22.25 136.73,20.41 137.64,19.07C138.55,17.73 139.71,16.77 141.14,16.18C142.57,15.59 144.3,15.3 146.34,15.3C147.7,15.3 148.99,15.41 150.22,15.64C151.44,15.87 152.54,16.29 153.52,16.9C154.49,17.51 155.34,18.39 156.07,19.52L156.61,19.52L156.61,0L167.56,0L167.56,50.52L157.16,50.52L156.89,46.37L156.35,46.37C155.67,47.69 154.8,48.68 153.73,49.36C152.66,50.04 151.51,50.49 150.26,50.72C149,50.95 147.72,51.07 146.4,51.07ZM151.37,42.09C152.77,42.09 153.83,41.92 154.53,41.58C155.23,41.24 155.72,40.62 155.99,39.71C156.26,38.94 156.43,38.02 156.5,36.96C156.57,35.9 156.6,34.64 156.6,33.19C156.6,31.79 156.57,30.56 156.5,29.52C156.43,28.48 156.26,27.59 155.99,26.87C155.72,25.87 155.23,25.19 154.53,24.83C153.83,24.47 152.77,24.29 151.37,24.29C150.1,24.29 149.11,24.38 148.41,24.56C147.71,24.74 147.17,25.12 146.81,25.68C146.45,26.25 146.22,27.12 146.13,28.3C146.04,29.48 145.99,31.11 145.99,33.2C145.99,35.29 146.05,36.93 146.16,38.13C146.27,39.33 146.49,40.22 146.81,40.78C147.13,41.35 147.65,41.71 148.37,41.87C149.1,42.01 150.1,42.09 151.37,42.09Z" style="fill:rgb(55,65,80);fill-rule:nonzero;"/>
        <path d="M183.12,50.52L172.72,15.84L183.8,15.84L190.33,40.8L190.94,40.8L197.26,15.84L208.28,15.84L197.88,50.52L183.12,50.52Z" style="fill:rgb(255,111,0);fill-rule:nonzero;"/>
        <path d="M221.13,51.07C218.91,51.07 217.06,50.73 215.59,50.05C214.12,49.37 213.01,48.26 212.26,46.72C211.51,45.18 211.14,43.16 211.14,40.67C211.14,38.04 211.45,35.94 212.06,34.38C212.67,32.82 213.78,31.69 215.39,31.01C217,30.33 219.23,29.99 222.09,29.99C222.5,29.99 223.08,30 223.82,30.02C224.57,30.04 225.42,30.07 226.37,30.09C227.32,30.11 228.26,30.14 229.19,30.16C230.12,30.18 230.99,30.22 231.81,30.26L231.81,28.97C231.81,27.7 231.71,26.69 231.5,25.94C231.29,25.19 230.91,24.65 230.34,24.31C229.77,23.97 228.92,23.76 227.79,23.66C226.66,23.57 225.16,23.52 223.3,23.52C222.3,23.52 221.17,23.55 219.9,23.62C218.63,23.69 217.39,23.76 216.19,23.82C214.99,23.89 213.98,23.97 213.16,24.06L213.16,16.44C215.02,16.08 217.11,15.79 219.45,15.59C221.78,15.39 224.24,15.28 226.83,15.28C229.73,15.28 232.14,15.46 234.07,15.82C236,16.18 237.55,16.74 238.73,17.49C239.91,18.24 240.78,19.18 241.35,20.31C241.92,21.44 242.28,22.77 242.44,24.29C242.6,25.81 242.68,27.57 242.68,29.56L242.68,50.5L232.34,50.5L232,46.42L231.46,46.42C230.64,47.83 229.66,48.86 228.5,49.51C227.34,50.17 226.13,50.59 224.86,50.77C223.6,50.98 222.36,51.07 221.13,51.07ZM226.3,43.25C227.12,43.25 227.82,43.21 228.41,43.11C229,43.02 229.52,42.83 229.97,42.53C230.42,42.24 230.76,41.84 230.99,41.34C231.26,40.84 231.47,40.24 231.6,39.54C231.74,38.84 231.8,37.99 231.8,36.99L231.8,35.7L225.54,35.7C224.36,35.7 223.48,35.78 222.89,35.94C222.3,36.1 221.9,36.46 221.7,37.03C221.5,37.6 221.39,38.47 221.39,39.65C221.39,40.65 221.5,41.41 221.73,41.93C221.96,42.45 222.42,42.8 223.12,42.98C223.84,43.16 224.9,43.25 226.3,43.25Z" style="fill:rgb(255,111,0);fill-rule:nonzero;"/>
        <path d="M251.19,50.52L251.19,15.84L261.53,15.84L261.8,21.82L262.41,21.82C263.04,20.1 263.85,18.77 264.82,17.84C265.79,16.91 266.99,16.25 268.39,15.87C269.79,15.49 271.4,15.29 273.22,15.29L273.22,25.29C270.41,25.29 268.19,25.65 266.56,26.38C264.93,27.11 263.77,28.34 263.09,30.09C262.41,31.84 262.07,34.27 262.07,37.4L262.07,50.52L251.19,50.52Z" style="fill:rgb(255,111,0);fill-rule:nonzero;"/>
        <path d="M278.93,8.77L278.93,0L290.15,0L290.15,8.77L278.93,8.77ZM279.07,50.52L279.07,15.84L290.09,15.84L290.09,50.52L279.07,50.52Z" style="fill:rgb(255,111,0);fill-rule:nonzero;"/>
        <path d="M313.75,51.07C310.67,51.07 308.11,50.89 306.07,50.53C304.03,50.17 302.41,49.59 301.21,48.8C300.01,48.01 299.15,46.92 298.63,45.54C298.11,44.16 297.76,42.45 297.58,40.41C297.4,38.37 297.31,35.97 297.31,33.2C297.31,30.39 297.4,27.96 297.58,25.92C297.76,23.88 298.11,22.18 298.63,20.82C299.15,19.46 300.01,18.37 301.21,17.56C302.41,16.74 304.03,16.17 306.07,15.83C308.11,15.49 310.67,15.32 313.75,15.32C316.88,15.32 319.46,15.49 321.5,15.83C323.54,16.17 325.14,16.75 326.29,17.56C327.44,18.37 328.31,19.46 328.87,20.82C329.44,22.18 329.8,23.88 329.96,25.92C330.12,27.96 330.2,30.39 330.2,33.2C330.2,35.97 330.12,38.37 329.96,40.41C329.8,42.45 329.44,44.16 328.87,45.54C328.3,46.92 327.44,48.01 326.29,48.8C325.13,49.59 323.54,50.17 321.5,50.53C319.46,50.89 316.88,51.07 313.75,51.07ZM313.75,42.84C315.11,42.84 316.17,42.73 316.95,42.5C317.72,42.27 318.26,41.85 318.58,41.24C318.9,40.63 319.09,39.67 319.16,38.35C319.23,37.04 319.26,35.31 319.26,33.18C319.26,30.96 319.23,29.21 319.16,27.94C319.09,26.67 318.9,25.72 318.58,25.08C318.26,24.45 317.72,24.03 316.95,23.82C316.18,23.61 315.11,23.51 313.75,23.51C312.39,23.51 311.32,23.61 310.55,23.82C309.78,24.02 309.25,24.44 308.95,25.08C308.65,25.72 308.47,26.67 308.41,27.94C308.34,29.21 308.31,30.96 308.31,33.18C308.31,35.31 308.34,37.03 308.41,38.35C308.48,39.67 308.66,40.63 308.95,41.24C309.24,41.85 309.78,42.27 310.55,42.5C311.32,42.73 312.39,42.84 313.75,42.84Z" style="fill:rgb(255,111,0);fill-rule:nonzero;"/>
    </g>
</svg>
