<?xml version="1.0" encoding="UTF-8"?>
<svg xmlns="http://www.w3.org/2000/svg" xmlns:xlink="http://www.w3.org/1999/xlink" version="1.1" x="0px" y="0px" viewBox="0 0 455.58 51.05" style="enable-background:new 0 0 455.58 51.05;" xml:space="preserve">
<style type="text/css">
	.st0{fill:#374150;}
	.st1{fill:#FF6F00;}
</style>
<g id="trendvario_Kopie">
	<g>
		<path class="st0" d="M6.39,50.52V24.07H0v-8.23h6.39V5.78h11.02v10.06h7.62v8.23h-7.62v26.45H6.39z"></path>
		<path class="st0" d="M30.6,50.52V15.84h10.34l0.27,5.98h0.61c0.63-1.72,1.44-3.05,2.41-3.98c0.97-0.93,2.16-1.59,3.57-1.97    c1.4-0.38,3.01-0.58,4.83-0.58v10c-2.81,0-5.03,0.36-6.66,1.09c-1.63,0.73-2.79,1.96-3.47,3.71c-0.68,1.75-1.02,4.18-1.02,7.31    v13.12H30.6z"></path>
		<path class="st0" d="M74.26,51.07c-3.22,0-5.89-0.2-8.02-0.61c-2.13-0.41-3.83-1.06-5.1-1.97c-1.27-0.91-2.19-2.05-2.75-3.43    c-0.57-1.38-0.95-3.05-1.16-5c-0.2-1.95-0.31-4.22-0.31-6.8c0-3.13,0.16-5.82,0.48-8.09c0.32-2.27,1-4.14,2.04-5.61    c1.04-1.47,2.67-2.55,4.9-3.23c2.22-0.68,5.19-1.02,8.91-1.02c3.04,0,5.52,0.2,7.45,0.61c1.93,0.41,3.42,1.07,4.49,1.97    c1.06,0.91,1.85,2.06,2.35,3.47c0.5,1.41,0.82,3.09,0.95,5.07c0.14,1.97,0.2,4.25,0.2,6.83v2.65H67.8c0,1.54,0.07,2.78,0.2,3.71    c0.14,0.93,0.5,1.63,1.09,2.11c0.59,0.48,1.5,0.78,2.72,0.92c1.22,0.14,2.9,0.2,5.03,0.2c0.95,0,2.01-0.02,3.16-0.07    c1.16-0.04,2.38-0.11,3.67-0.2c1.29-0.09,2.5-0.18,3.64-0.27v7.62c-1,0.23-2.21,0.42-3.64,0.58c-1.43,0.16-2.96,0.29-4.59,0.41    C77.45,51.01,75.84,51.07,74.26,51.07z M78.4,31.28v-1.02c0-1.63-0.08-2.93-0.24-3.91c-0.16-0.97-0.43-1.69-0.82-2.14    c-0.39-0.45-0.92-0.75-1.6-0.88c-0.68-0.14-1.52-0.2-2.52-0.2c-1.22,0-2.2,0.08-2.92,0.24c-0.73,0.16-1.26,0.48-1.6,0.95    s-0.58,1.2-0.71,2.18c-0.14,0.98-0.2,2.23-0.2,3.77h11.76L78.4,31.28z"></path>
		<path class="st0" d="M96.02,50.52V15.84h10.34l0.27,4.22h0.61c0.68-1.22,1.52-2.18,2.52-2.86c1-0.68,2.14-1.17,3.43-1.46    c1.29-0.29,2.66-0.44,4.11-0.44c2.31,0,4.16,0.3,5.54,0.88c1.38,0.59,2.44,1.46,3.16,2.62c0.72,1.16,1.2,2.56,1.43,4.22    c0.23,1.66,0.34,3.59,0.34,5.81v21.69h-10.88V32.16c0-1.86-0.05-3.32-0.14-4.39c-0.09-1.06-0.3-1.85-0.61-2.35    c-0.32-0.5-0.81-0.82-1.46-0.95c-0.66-0.14-1.53-0.2-2.62-0.2c-1.18,0-2.11,0.14-2.79,0.41c-0.68,0.27-1.18,0.71-1.5,1.33    c-0.32,0.61-0.54,1.44-0.68,2.48c-0.14,1.04-0.2,2.38-0.2,4.01v18.02H96.02z"></path>
		<path class="st0" d="M146.4,51.07c-2.04,0-3.76-0.27-5.17-0.82c-1.41-0.54-2.57-1.48-3.5-2.82c-0.93-1.34-1.62-3.16-2.07-5.47    c-0.45-2.31-0.68-5.19-0.68-8.64c0-3.49,0.21-6.4,0.65-8.74c0.43-2.33,1.1-4.17,2.01-5.51c0.91-1.34,2.07-2.3,3.5-2.89    c1.43-0.59,3.16-0.88,5.2-0.88c1.36,0,2.65,0.11,3.88,0.34c1.22,0.23,2.32,0.65,3.3,1.26c0.97,0.61,1.82,1.49,2.55,2.62h0.54V0    h10.95v50.52h-10.4l-0.27-4.15h-0.54c-0.68,1.32-1.55,2.31-2.62,2.99c-1.07,0.68-2.22,1.13-3.47,1.36    C149,50.95,147.72,51.07,146.4,51.07z M151.37,42.09c1.4,0,2.46-0.17,3.16-0.51c0.7-0.34,1.19-0.96,1.46-1.87    c0.27-0.77,0.44-1.69,0.51-2.75c0.07-1.06,0.1-2.32,0.1-3.77c0-1.4-0.03-2.63-0.1-3.67c-0.07-1.04-0.24-1.93-0.51-2.65    c-0.27-1-0.76-1.68-1.46-2.04c-0.7-0.36-1.76-0.54-3.16-0.54c-1.27,0-2.26,0.09-2.96,0.27c-0.7,0.18-1.24,0.56-1.6,1.12    c-0.36,0.57-0.59,1.44-0.68,2.62c-0.09,1.18-0.14,2.81-0.14,4.9c0,2.09,0.06,3.73,0.17,4.93c0.11,1.2,0.33,2.09,0.65,2.65    c0.32,0.57,0.84,0.93,1.56,1.09C149.1,42.01,150.1,42.09,151.37,42.09z"></path>
		<path class="st1" d="M183.12,50.52l-10.4-34.68h11.08l6.53,24.96h0.61l6.32-24.96h11.02l-10.4,34.68H183.12z"></path>
		<path class="st1" d="M221.13,51.07c-2.22,0-4.07-0.34-5.54-1.02c-1.47-0.68-2.58-1.79-3.33-3.33c-0.75-1.54-1.12-3.56-1.12-6.05    c0-2.63,0.31-4.73,0.92-6.29c0.61-1.56,1.72-2.69,3.33-3.37c1.61-0.68,3.84-1.02,6.7-1.02c0.41,0,0.99,0.01,1.73,0.03    c0.75,0.02,1.6,0.05,2.55,0.07c0.95,0.02,1.89,0.05,2.82,0.07c0.93,0.02,1.8,0.06,2.62,0.1v-1.29c0-1.27-0.1-2.28-0.31-3.03    s-0.59-1.29-1.16-1.63c-0.57-0.34-1.42-0.55-2.55-0.65c-1.13-0.09-2.63-0.14-4.49-0.14c-1,0-2.13,0.03-3.4,0.1    c-1.27,0.07-2.51,0.14-3.71,0.2c-1.2,0.07-2.21,0.15-3.03,0.24v-7.62c1.86-0.36,3.95-0.65,6.29-0.85c2.33-0.2,4.79-0.31,7.38-0.31    c2.9,0,5.31,0.18,7.24,0.54c1.93,0.36,3.48,0.92,4.66,1.67s2.05,1.69,2.62,2.82c0.57,1.13,0.93,2.46,1.09,3.98    c0.16,1.52,0.24,3.28,0.24,5.27v20.94h-10.34l-0.34-4.08h-0.54c-0.82,1.41-1.8,2.44-2.96,3.09c-1.16,0.66-2.37,1.08-3.64,1.26    C223.6,50.98,222.36,51.07,221.13,51.07z M226.3,43.25c0.82,0,1.52-0.04,2.11-0.14c0.59-0.09,1.11-0.28,1.56-0.58    c0.45-0.29,0.79-0.69,1.02-1.19c0.27-0.5,0.48-1.1,0.61-1.8c0.14-0.7,0.2-1.55,0.2-2.55V35.7h-6.26c-1.18,0-2.06,0.08-2.65,0.24    c-0.59,0.16-0.99,0.52-1.19,1.09c-0.2,0.57-0.31,1.44-0.31,2.62c0,1,0.11,1.76,0.34,2.28c0.23,0.52,0.69,0.87,1.39,1.05    C223.84,43.16,224.9,43.25,226.3,43.25z"></path>
		<path class="st1" d="M251.19,50.52V15.84h10.34l0.27,5.98h0.61c0.63-1.72,1.44-3.05,2.41-3.98c0.97-0.93,2.17-1.59,3.57-1.97    c1.4-0.38,3.01-0.58,4.83-0.58v10c-2.81,0-5.03,0.36-6.66,1.09c-1.63,0.73-2.79,1.96-3.47,3.71c-0.68,1.75-1.02,4.18-1.02,7.31    v13.12H251.19z"></path>
		<path class="st1" d="M278.93,8.77V0h11.22v8.77H278.93z M279.07,50.52V15.84h11.02v34.68H279.07z"></path>
		<path class="st1" d="M313.75,51.07c-3.08,0-5.64-0.18-7.68-0.54s-3.66-0.94-4.86-1.73c-1.2-0.79-2.06-1.88-2.58-3.26    c-0.52-1.38-0.87-3.09-1.05-5.13c-0.18-2.04-0.27-4.44-0.27-7.21c0-2.81,0.09-5.24,0.27-7.28c0.18-2.04,0.53-3.74,1.05-5.1    c0.52-1.36,1.38-2.45,2.58-3.26c1.2-0.82,2.82-1.39,4.86-1.73c2.04-0.34,4.6-0.51,7.68-0.51c3.13,0,5.71,0.17,7.75,0.51    c2.04,0.34,3.64,0.92,4.79,1.73s2.02,1.9,2.58,3.26c0.57,1.36,0.93,3.06,1.09,5.1c0.16,2.04,0.24,4.47,0.24,7.28    c0,2.77-0.08,5.17-0.24,7.21c-0.16,2.04-0.52,3.75-1.09,5.13c-0.57,1.38-1.43,2.47-2.58,3.26c-1.16,0.79-2.75,1.37-4.79,1.73    S316.88,51.07,313.75,51.07z M313.75,42.84c1.36,0,2.42-0.11,3.2-0.34c0.77-0.23,1.31-0.65,1.63-1.26    c0.32-0.61,0.51-1.57,0.58-2.89c0.07-1.31,0.1-3.04,0.1-5.17c0-2.22-0.03-3.97-0.1-5.24c-0.07-1.27-0.26-2.22-0.58-2.86    c-0.32-0.63-0.86-1.05-1.63-1.26s-1.84-0.31-3.2-0.31c-1.36,0-2.43,0.1-3.2,0.31c-0.77,0.2-1.3,0.62-1.6,1.26    c-0.3,0.64-0.48,1.59-0.54,2.86c-0.07,1.27-0.1,3.02-0.1,5.24c0,2.13,0.03,3.85,0.1,5.17c0.07,1.32,0.25,2.28,0.54,2.89    c0.29,0.61,0.83,1.03,1.6,1.26C311.32,42.73,312.39,42.84,313.75,42.84z"></path>
	</g>
</g>
<g id="_x36_100">
	<g>
		<path class="st0" d="M358.03,51.05c-2.3,0-4.26-0.11-5.88-0.32c-1.62-0.22-2.95-0.68-4-1.4c-1.05-0.72-1.86-1.82-2.43-3.32    c-0.33-0.77-0.58-1.72-0.75-2.85c-0.17-1.13-0.29-2.48-0.38-4.02c-0.08-1.55-0.12-3.33-0.12-5.33c0-1.83,0.04-3.5,0.12-5    s0.22-2.83,0.4-4c0.18-1.17,0.42-2.2,0.72-3.1c0.57-1.57,1.38-2.77,2.45-3.6c1.07-0.83,2.43-1.42,4.1-1.75    c1.67-0.33,3.7-0.5,6.1-0.5c0.87,0,1.88,0.04,3.03,0.12c1.15,0.08,2.35,0.19,3.6,0.32c1.25,0.13,2.44,0.28,3.58,0.45v3.45    c-1.03-0.13-2.12-0.24-3.28-0.32c-1.15-0.08-2.25-0.16-3.3-0.23c-1.05-0.07-1.96-0.1-2.72-0.1c-2.33,0-4.19,0.17-5.58,0.5    c-1.38,0.33-2.42,0.95-3.12,1.85s-1.17,2.21-1.4,3.92c-0.23,1.72-0.35,3.98-0.35,6.78h0.3c0.37-0.4,0.88-0.79,1.55-1.18    c0.67-0.38,1.64-0.7,2.92-0.95s3.01-0.38,5.18-0.38c2.1,0,3.9,0.12,5.4,0.35c1.5,0.23,2.72,0.68,3.65,1.35    c0.93,0.67,1.61,1.63,2.02,2.9c0.42,1.27,0.62,2.95,0.62,5.05c0,2.2-0.16,4.03-0.47,5.5c-0.32,1.47-0.92,2.62-1.83,3.45    c-0.9,0.83-2.17,1.43-3.8,1.8C362.75,50.87,360.63,51.05,358.03,51.05z M357.63,47.35c1.73,0,3.17-0.07,4.3-0.2    c1.13-0.13,2.02-0.42,2.65-0.88c0.63-0.45,1.07-1.11,1.3-1.98c0.23-0.87,0.35-2.07,0.35-3.6c0-1.6-0.12-2.87-0.35-3.8    c-0.23-0.93-0.65-1.62-1.25-2.08c-0.6-0.45-1.47-0.73-2.6-0.85c-1.13-0.12-2.6-0.18-4.4-0.18c-1.97,0-3.53,0.1-4.7,0.3    c-1.17,0.2-2.02,0.52-2.58,0.97c-0.55,0.45-0.92,1.03-1.1,1.73c-0.18,0.7-0.28,1.55-0.28,2.55c0,1.83,0.14,3.28,0.43,4.35    c0.28,1.07,0.75,1.87,1.4,2.4c0.65,0.53,1.53,0.88,2.62,1.02C354.53,47.28,355.93,47.35,357.63,47.35z"></path>
		<path class="st0" d="M382.53,50.65v-29.5l-7.1,3.45v-3.85l8.35-4.5h3.05v34.4H382.53z"></path>
		<path class="st0" d="M409.08,51.05c-2.5,0-4.56-0.14-6.17-0.42c-1.62-0.28-2.88-0.79-3.8-1.52c-0.92-0.73-1.58-1.76-2-3.08    c-0.42-1.32-0.68-3-0.8-5.05c-0.12-2.05-0.17-4.56-0.17-7.53c0-2.97,0.06-5.47,0.17-7.52c0.12-2.05,0.38-3.73,0.8-5.05    c0.42-1.32,1.08-2.34,2-3.08c0.92-0.73,2.18-1.24,3.8-1.52c1.62-0.28,3.67-0.42,6.17-0.42s4.56,0.14,6.17,0.42    c1.62,0.28,2.88,0.79,3.8,1.52c0.92,0.73,1.59,1.76,2.03,3.08c0.43,1.32,0.7,3,0.8,5.05c0.1,2.05,0.15,4.56,0.15,7.52    c0,2.97-0.05,5.48-0.15,7.53c-0.1,2.05-0.37,3.73-0.8,5.05c-0.43,1.32-1.11,2.34-2.03,3.08c-0.92,0.73-2.18,1.24-3.8,1.52    C413.64,50.91,411.58,51.05,409.08,51.05z M409.08,47.35c1.7,0,3.08-0.06,4.15-0.18c1.07-0.12,1.91-0.39,2.53-0.82    c0.62-0.43,1.07-1.15,1.35-2.15s0.47-2.37,0.55-4.1c0.08-1.73,0.12-3.95,0.12-6.65c0-2.7-0.04-4.92-0.12-6.65    c-0.08-1.73-0.27-3.1-0.55-4.1s-0.73-1.72-1.35-2.15c-0.62-0.43-1.46-0.71-2.53-0.82c-1.07-0.12-2.43-0.18-4.1-0.18    c-1.67,0-3.05,0.06-4.15,0.18c-1.1,0.12-1.96,0.39-2.57,0.82c-0.62,0.43-1.07,1.15-1.35,2.15s-0.46,2.37-0.52,4.1    c-0.07,1.73-0.1,3.95-0.1,6.65c0,2.7,0.03,4.92,0.1,6.65c0.07,1.73,0.24,3.1,0.52,4.1s0.73,1.72,1.35,2.15    c0.62,0.43,1.47,0.71,2.55,0.82C406.04,47.29,407.42,47.35,409.08,47.35z"></path>
		<path class="st0" d="M442.63,51.05c-2.5,0-4.56-0.14-6.17-0.42c-1.62-0.28-2.88-0.79-3.8-1.52c-0.92-0.73-1.58-1.76-2-3.08    c-0.42-1.32-0.68-3-0.8-5.05c-0.12-2.05-0.18-4.56-0.18-7.53c0-2.97,0.06-5.47,0.18-7.52c0.12-2.05,0.38-3.73,0.8-5.05    c0.42-1.32,1.08-2.34,2-3.08c0.92-0.73,2.18-1.24,3.8-1.52c1.62-0.28,3.67-0.42,6.17-0.42s4.56,0.14,6.17,0.42    c1.62,0.28,2.88,0.79,3.8,1.52c0.92,0.73,1.59,1.76,2.02,3.08c0.43,1.32,0.7,3,0.8,5.05c0.1,2.05,0.15,4.56,0.15,7.52    c0,2.97-0.05,5.48-0.15,7.53c-0.1,2.05-0.37,3.73-0.8,5.05c-0.43,1.32-1.11,2.34-2.02,3.08c-0.92,0.73-2.18,1.24-3.8,1.52    S445.13,51.05,442.63,51.05z M442.63,47.35c1.7,0,3.08-0.06,4.15-0.18c1.07-0.12,1.91-0.39,2.52-0.82    c0.62-0.43,1.07-1.15,1.35-2.15c0.28-1,0.47-2.37,0.55-4.1c0.08-1.73,0.12-3.95,0.12-6.65c0-2.7-0.04-4.92-0.12-6.65    c-0.08-1.73-0.27-3.1-0.55-4.1c-0.28-1-0.73-1.72-1.35-2.15c-0.62-0.43-1.46-0.71-2.52-0.82c-1.07-0.12-2.43-0.18-4.1-0.18    s-3.05,0.06-4.15,0.18c-1.1,0.12-1.96,0.39-2.58,0.82c-0.62,0.43-1.07,1.15-1.35,2.15c-0.28,1-0.46,2.37-0.53,4.1    c-0.07,1.73-0.1,3.95-0.1,6.65c0,2.7,0.03,4.92,0.1,6.65c0.07,1.73,0.24,3.1,0.53,4.1c0.28,1,0.73,1.72,1.35,2.15    c0.62,0.43,1.47,0.71,2.55,0.82C439.59,47.29,440.96,47.35,442.63,47.35z"></path>
	</g>
</g>
</svg>
