<?xml version="1.0" encoding="UTF-8" standalone="no"?>
<!DOCTYPE svg PUBLIC "-//W3C//DTD SVG 1.1//EN" "http://www.w3.org/Graphics/SVG/1.1/DTD/svg11.dtd">
<svg width="100%" height="100%" viewBox="0 0 468 52" version="1.1" xmlns="http://www.w3.org/2000/svg" xmlns:xlink="http://www.w3.org/1999/xlink" xml:space="preserve" xmlns:serif="http://www.serif.com/" style="fill-rule:evenodd;clip-rule:evenodd;stroke-linejoin:round;stroke-miterlimit:2;">
    <g>
        <path d="M6.39,50.52L6.39,24.07L0,24.07L0,15.84L6.39,15.84L6.39,5.78L17.41,5.78L17.41,15.84L25.03,15.84L25.03,24.07L17.41,24.07L17.41,50.52L6.39,50.52Z" style="fill:rgb(55,65,80);fill-rule:nonzero;"/>
        <path d="M30.6,50.52L30.6,15.84L40.94,15.84L41.21,21.82L41.82,21.82C42.45,20.1 43.26,18.77 44.23,17.84C45.2,16.91 46.39,16.25 47.8,15.87C49.2,15.49 50.81,15.29 52.63,15.29L52.63,25.29C49.82,25.29 47.6,25.65 45.97,26.38C44.34,27.11 43.18,28.34 42.5,30.09C41.82,31.84 41.48,34.27 41.48,37.4L41.48,50.52L30.6,50.52Z" style="fill:rgb(55,65,80);fill-rule:nonzero;"/>
        <path d="M74.26,51.07C71.04,51.07 68.37,50.87 66.24,50.46C64.11,50.05 62.41,49.4 61.14,48.49C59.87,47.58 58.95,46.44 58.39,45.06C57.82,43.68 57.44,42.01 57.23,40.06C57.03,38.11 56.92,35.84 56.92,33.26C56.92,30.13 57.08,27.44 57.4,25.17C57.72,22.9 58.4,21.03 59.44,19.56C60.48,18.09 62.11,17.01 64.34,16.33C66.56,15.65 69.53,15.31 73.25,15.31C76.29,15.31 78.77,15.51 80.7,15.92C82.63,16.33 84.12,16.99 85.19,17.89C86.25,18.8 87.04,19.95 87.54,21.36C88.04,22.77 88.36,24.45 88.49,26.43C88.63,28.4 88.69,30.68 88.69,33.26L88.69,35.91L67.8,35.91C67.8,37.45 67.87,38.69 68,39.62C68.14,40.55 68.5,41.25 69.09,41.73C69.68,42.21 70.59,42.51 71.81,42.65C73.03,42.79 74.71,42.85 76.84,42.85C77.79,42.85 78.85,42.83 80,42.78C81.16,42.74 82.38,42.67 83.67,42.58C84.96,42.49 86.17,42.4 87.31,42.31L87.31,49.93C86.31,50.16 85.1,50.35 83.67,50.51C82.24,50.67 80.71,50.8 79.08,50.92C77.45,51.01 75.84,51.07 74.26,51.07ZM78.4,31.28L78.4,30.26C78.4,28.63 78.32,27.33 78.16,26.35C78,25.38 77.73,24.66 77.34,24.21C76.95,23.76 76.42,23.46 75.74,23.33C75.06,23.19 74.22,23.13 73.22,23.13C72,23.13 71.02,23.21 70.3,23.37C69.57,23.53 69.04,23.85 68.7,24.32C68.36,24.79 68.12,25.52 67.99,26.5C67.85,27.48 67.79,28.73 67.79,30.27L79.55,30.27L78.4,31.28Z" style="fill:rgb(55,65,80);fill-rule:nonzero;"/>
        <path d="M96.02,50.52L96.02,15.84L106.36,15.84L106.63,20.06L107.24,20.06C107.92,18.84 108.76,17.88 109.76,17.2C110.76,16.52 111.9,16.03 113.19,15.74C114.48,15.45 115.85,15.3 117.3,15.3C119.61,15.3 121.46,15.6 122.84,16.18C124.22,16.77 125.28,17.64 126,18.8C126.72,19.96 127.2,21.36 127.43,23.02C127.66,24.68 127.77,26.61 127.77,28.83L127.77,50.52L116.89,50.52L116.89,32.16C116.89,30.3 116.84,28.84 116.75,27.77C116.66,26.71 116.45,25.92 116.14,25.42C115.82,24.92 115.33,24.6 114.68,24.47C114.02,24.33 113.15,24.27 112.06,24.27C110.88,24.27 109.95,24.41 109.27,24.68C108.59,24.95 108.09,25.39 107.77,26.01C107.45,26.62 107.23,27.45 107.09,28.49C106.95,29.53 106.89,30.87 106.89,32.5L106.89,50.52L96.02,50.52Z" style="fill:rgb(55,65,80);fill-rule:nonzero;"/>
        <path d="M146.4,51.07C144.36,51.07 142.64,50.8 141.23,50.25C139.82,49.71 138.66,48.77 137.73,47.43C136.8,46.09 136.11,44.27 135.66,41.96C135.21,39.65 134.98,36.77 134.98,33.32C134.98,29.83 135.19,26.92 135.63,24.58C136.06,22.25 136.73,20.41 137.64,19.07C138.55,17.73 139.71,16.77 141.14,16.18C142.57,15.59 144.3,15.3 146.34,15.3C147.7,15.3 148.99,15.41 150.22,15.64C151.44,15.87 152.54,16.29 153.52,16.9C154.49,17.51 155.34,18.39 156.07,19.52L156.61,19.52L156.61,0L167.56,0L167.56,50.52L157.16,50.52L156.89,46.37L156.35,46.37C155.67,47.69 154.8,48.68 153.73,49.36C152.66,50.04 151.51,50.49 150.26,50.72C149,50.95 147.72,51.07 146.4,51.07ZM151.37,42.09C152.77,42.09 153.83,41.92 154.53,41.58C155.23,41.24 155.72,40.62 155.99,39.71C156.26,38.94 156.43,38.02 156.5,36.96C156.57,35.9 156.6,34.64 156.6,33.19C156.6,31.79 156.57,30.56 156.5,29.52C156.43,28.48 156.26,27.59 155.99,26.87C155.72,25.87 155.23,25.19 154.53,24.83C153.83,24.47 152.77,24.29 151.37,24.29C150.1,24.29 149.11,24.38 148.41,24.56C147.71,24.74 147.17,25.12 146.81,25.68C146.45,26.25 146.22,27.12 146.13,28.3C146.04,29.48 145.99,31.11 145.99,33.2C145.99,35.29 146.05,36.93 146.16,38.13C146.27,39.33 146.49,40.22 146.81,40.78C147.13,41.35 147.65,41.71 148.37,41.87C149.1,42.01 150.1,42.09 151.37,42.09Z" style="fill:rgb(55,65,80);fill-rule:nonzero;"/>
        <path d="M183.12,50.52L172.72,15.84L183.8,15.84L190.33,40.8L190.94,40.8L197.26,15.84L208.28,15.84L197.88,50.52L183.12,50.52Z" style="fill:rgb(255,111,0);fill-rule:nonzero;"/>
        <path d="M221.13,51.07C218.91,51.07 217.06,50.73 215.59,50.05C214.12,49.37 213.01,48.26 212.26,46.72C211.51,45.18 211.14,43.16 211.14,40.67C211.14,38.04 211.45,35.94 212.06,34.38C212.67,32.82 213.78,31.69 215.39,31.01C217,30.33 219.23,29.99 222.09,29.99C222.5,29.99 223.08,30 223.82,30.02C224.57,30.04 225.42,30.07 226.37,30.09C227.32,30.11 228.26,30.14 229.19,30.16C230.12,30.18 230.99,30.22 231.81,30.26L231.81,28.97C231.81,27.7 231.71,26.69 231.5,25.94C231.29,25.19 230.91,24.65 230.34,24.31C229.77,23.97 228.92,23.76 227.79,23.66C226.66,23.57 225.16,23.52 223.3,23.52C222.3,23.52 221.17,23.55 219.9,23.62C218.63,23.69 217.39,23.76 216.19,23.82C214.99,23.89 213.98,23.97 213.16,24.06L213.16,16.44C215.02,16.08 217.11,15.79 219.45,15.59C221.78,15.39 224.24,15.28 226.83,15.28C229.73,15.28 232.14,15.46 234.07,15.82C236,16.18 237.55,16.74 238.73,17.49C239.91,18.24 240.78,19.18 241.35,20.31C241.92,21.44 242.28,22.77 242.44,24.29C242.6,25.81 242.68,27.57 242.68,29.56L242.68,50.5L232.34,50.5L232,46.42L231.46,46.42C230.64,47.83 229.66,48.86 228.5,49.51C227.34,50.17 226.13,50.59 224.86,50.77C223.6,50.98 222.36,51.07 221.13,51.07ZM226.3,43.25C227.12,43.25 227.82,43.21 228.41,43.11C229,43.02 229.52,42.83 229.97,42.53C230.42,42.24 230.76,41.84 230.99,41.34C231.26,40.84 231.47,40.24 231.6,39.54C231.74,38.84 231.8,37.99 231.8,36.99L231.8,35.7L225.54,35.7C224.36,35.7 223.48,35.78 222.89,35.94C222.3,36.1 221.9,36.46 221.7,37.03C221.5,37.6 221.39,38.47 221.39,39.65C221.39,40.65 221.5,41.41 221.73,41.93C221.96,42.45 222.42,42.8 223.12,42.98C223.84,43.16 224.9,43.25 226.3,43.25Z" style="fill:rgb(255,111,0);fill-rule:nonzero;"/>
        <path d="M251.19,50.52L251.19,15.84L261.53,15.84L261.8,21.82L262.41,21.82C263.04,20.1 263.85,18.77 264.82,17.84C265.79,16.91 266.99,16.25 268.39,15.87C269.79,15.49 271.4,15.29 273.22,15.29L273.22,25.29C270.41,25.29 268.19,25.65 266.56,26.38C264.93,27.11 263.77,28.34 263.09,30.09C262.41,31.84 262.07,34.27 262.07,37.4L262.07,50.52L251.19,50.52Z" style="fill:rgb(255,111,0);fill-rule:nonzero;"/>
        <path d="M278.93,8.77L278.93,0L290.15,0L290.15,8.77L278.93,8.77ZM279.07,50.52L279.07,15.84L290.09,15.84L290.09,50.52L279.07,50.52Z" style="fill:rgb(255,111,0);fill-rule:nonzero;"/>
        <path d="M313.75,51.07C310.67,51.07 308.11,50.89 306.07,50.53C304.03,50.17 302.41,49.59 301.21,48.8C300.01,48.01 299.15,46.92 298.63,45.54C298.11,44.16 297.76,42.45 297.58,40.41C297.4,38.37 297.31,35.97 297.31,33.2C297.31,30.39 297.4,27.96 297.58,25.92C297.76,23.88 298.11,22.18 298.63,20.82C299.15,19.46 300.01,18.37 301.21,17.56C302.41,16.74 304.03,16.17 306.07,15.83C308.11,15.49 310.67,15.32 313.75,15.32C316.88,15.32 319.46,15.49 321.5,15.83C323.54,16.17 325.14,16.75 326.29,17.56C327.44,18.37 328.31,19.46 328.87,20.82C329.44,22.18 329.8,23.88 329.96,25.92C330.12,27.96 330.2,30.39 330.2,33.2C330.2,35.97 330.12,38.37 329.96,40.41C329.8,42.45 329.44,44.16 328.87,45.54C328.3,46.92 327.44,48.01 326.29,48.8C325.13,49.59 323.54,50.17 321.5,50.53C319.46,50.89 316.88,51.07 313.75,51.07ZM313.75,42.84C315.11,42.84 316.17,42.73 316.95,42.5C317.72,42.27 318.26,41.85 318.58,41.24C318.9,40.63 319.09,39.67 319.16,38.35C319.23,37.04 319.26,35.31 319.26,33.18C319.26,30.96 319.23,29.21 319.16,27.94C319.09,26.67 318.9,25.72 318.58,25.08C318.26,24.45 317.72,24.03 316.95,23.82C316.18,23.61 315.11,23.51 313.75,23.51C312.39,23.51 311.32,23.61 310.55,23.82C309.78,24.02 309.25,24.44 308.95,25.08C308.65,25.72 308.47,26.67 308.41,27.94C308.34,29.21 308.31,30.96 308.31,33.18C308.31,35.31 308.34,37.03 308.41,38.35C308.48,39.67 308.66,40.63 308.95,41.24C309.24,41.85 309.78,42.27 310.55,42.5C311.32,42.73 312.39,42.84 313.75,42.84Z" style="fill:rgb(255,111,0);fill-rule:nonzero;"/>
    </g>
    <g>
        <path d="M358.03,51.05C355.73,51.05 353.77,50.94 352.15,50.73C350.53,50.51 349.2,50.05 348.15,49.33C347.1,48.61 346.29,47.51 345.72,46.01C345.39,45.24 345.14,44.29 344.97,43.16C344.8,42.03 344.68,40.68 344.59,39.14C344.51,37.59 344.47,35.81 344.47,33.81C344.47,31.98 344.51,30.31 344.59,28.81C344.67,27.31 344.81,25.98 344.99,24.81C345.17,23.64 345.41,22.61 345.71,21.71C346.28,20.14 347.09,18.94 348.16,18.11C349.23,17.28 350.59,16.69 352.26,16.36C353.93,16.03 355.96,15.86 358.36,15.86C359.23,15.86 360.24,15.9 361.39,15.98C362.54,16.06 363.74,16.17 364.99,16.3C366.24,16.43 367.43,16.58 368.57,16.75L368.57,20.2C367.54,20.07 366.45,19.96 365.29,19.88C364.14,19.8 363.04,19.72 361.99,19.65C360.94,19.58 360.03,19.55 359.27,19.55C356.94,19.55 355.08,19.72 353.69,20.05C352.31,20.38 351.27,21 350.57,21.9C349.87,22.8 349.4,24.11 349.17,25.82C348.94,27.54 348.82,29.8 348.82,32.6L349.12,32.6C349.49,32.2 350,31.81 350.67,31.42C351.34,31.04 352.31,30.72 353.59,30.47C354.87,30.22 356.6,30.09 358.77,30.09C360.87,30.09 362.67,30.21 364.17,30.44C365.67,30.67 366.89,31.12 367.82,31.79C368.75,32.46 369.43,33.42 369.84,34.69C370.26,35.96 370.46,37.64 370.46,39.74C370.46,41.94 370.3,43.77 369.99,45.24C369.67,46.71 369.07,47.86 368.16,48.69C367.26,49.52 365.99,50.12 364.36,50.49C362.75,50.87 360.63,51.05 358.03,51.05ZM357.63,47.35C359.36,47.35 360.8,47.28 361.93,47.15C363.06,47.02 363.95,46.73 364.58,46.27C365.21,45.82 365.65,45.16 365.88,44.29C366.11,43.42 366.23,42.22 366.23,40.69C366.23,39.09 366.11,37.82 365.88,36.89C365.65,35.96 365.23,35.27 364.63,34.81C364.03,34.36 363.16,34.08 362.03,33.96C360.9,33.84 359.43,33.78 357.63,33.78C355.66,33.78 354.1,33.88 352.93,34.08C351.76,34.28 350.91,34.6 350.35,35.05C349.8,35.5 349.43,36.08 349.25,36.78C349.07,37.48 348.97,38.33 348.97,39.33C348.97,41.16 349.11,42.61 349.4,43.68C349.68,44.75 350.15,45.55 350.8,46.08C351.45,46.61 352.33,46.96 353.42,47.1C354.53,47.28 355.93,47.35 357.63,47.35Z" style="fill:rgb(55,65,80);fill-rule:nonzero;"/>
        <path d="M377.03,50.65L377.03,46.65C377.03,44.75 377.07,43.16 377.15,41.88C377.23,40.6 377.46,39.54 377.82,38.7C378.19,37.87 378.76,37.15 379.54,36.55C380.32,35.95 381.43,35.35 382.87,34.75L391.92,30.9C393.12,30.37 394.02,29.87 394.62,29.4C395.22,28.93 395.63,28.37 395.85,27.7C396.07,27.03 396.17,26.15 396.17,25.05C396.17,23.45 395.93,22.26 395.45,21.48C394.97,20.7 394.12,20.18 392.9,19.93C391.68,19.68 389.96,19.55 387.73,19.55C386.93,19.55 385.95,19.58 384.8,19.65C383.65,19.72 382.46,19.79 381.23,19.88C380,19.96 378.83,20.07 377.73,20.2L377.73,16.7C378.7,16.53 379.82,16.39 381.11,16.28C382.39,16.16 383.73,16.06 385.11,15.98C386.49,15.9 387.8,15.86 389.03,15.86C390.63,15.86 392.11,15.94 393.48,16.11C394.85,16.28 396.06,16.64 397.13,17.21C398.2,17.78 399.02,18.65 399.61,19.83C400.19,21.01 400.49,22.61 400.49,24.61C400.49,26.61 400.28,28.2 399.87,29.38C399.45,30.56 398.79,31.51 397.87,32.23C396.95,32.95 395.75,33.62 394.25,34.25L383.95,38.6C383.08,38.97 382.46,39.38 382.07,39.85C381.68,40.32 381.45,40.92 381.35,41.67C381.25,42.42 381.2,43.38 381.2,44.55L381.2,46.9L400.5,46.9L400.5,50.65L377.03,50.65Z" style="fill:rgb(55,65,80);fill-rule:nonzero;"/>
        <path d="M420.78,51.05C418.28,51.05 416.22,50.91 414.61,50.63C412.99,50.35 411.73,49.84 410.81,49.11C409.89,48.38 409.23,47.35 408.81,46.03C408.39,44.71 408.13,43.03 408.01,40.98C407.89,38.93 407.84,36.42 407.84,33.45C407.84,30.48 407.9,27.98 408.01,25.93C408.13,23.88 408.39,22.2 408.81,20.88C409.23,19.56 409.89,18.54 410.81,17.8C411.73,17.07 412.99,16.56 414.61,16.28C416.23,16 418.28,15.86 420.78,15.86C423.28,15.86 425.34,16 426.95,16.28C428.57,16.56 429.83,17.07 430.75,17.8C431.67,18.53 432.34,19.56 432.78,20.88C433.21,22.2 433.48,23.88 433.58,25.93C433.68,27.98 433.73,30.49 433.73,33.45C433.73,36.42 433.68,38.93 433.58,40.98C433.48,43.03 433.21,44.71 432.78,46.03C432.35,47.35 431.67,48.37 430.75,49.11C429.83,49.84 428.57,50.35 426.95,50.63C425.34,50.91 423.28,51.05 420.78,51.05ZM420.78,47.35C422.48,47.35 423.86,47.29 424.93,47.17C426,47.05 426.84,46.78 427.46,46.35C428.08,45.92 428.53,45.2 428.81,44.2C429.09,43.2 429.28,41.83 429.36,40.1C429.44,38.37 429.48,36.15 429.48,33.45C429.48,30.75 429.44,28.53 429.36,26.8C429.28,25.07 429.09,23.7 428.81,22.7C428.53,21.7 428.08,20.98 427.46,20.55C426.84,20.12 426,19.84 424.93,19.73C423.86,19.61 422.5,19.55 420.83,19.55C419.16,19.55 417.78,19.61 416.68,19.73C415.58,19.85 414.72,20.12 414.11,20.55C413.49,20.98 413.04,21.7 412.76,22.7C412.48,23.7 412.3,25.07 412.24,26.8C412.17,28.53 412.14,30.75 412.14,33.45C412.14,36.15 412.17,38.37 412.24,40.1C412.31,41.83 412.48,43.2 412.76,44.2C413.04,45.2 413.49,45.92 414.11,46.35C414.73,46.78 415.58,47.06 416.66,47.17C417.74,47.29 419.11,47.35 420.78,47.35Z" style="fill:rgb(55,65,80);fill-rule:nonzero;"/>
        <path d="M454.33,51.05C451.83,51.05 449.77,50.91 448.16,50.63C446.54,50.35 445.28,49.84 444.36,49.11C443.44,48.38 442.78,47.35 442.36,46.03C441.94,44.71 441.68,43.03 441.56,40.98C441.44,38.93 441.38,36.42 441.38,33.45C441.38,30.48 441.44,27.98 441.56,25.93C441.68,23.88 441.94,22.2 442.36,20.88C442.78,19.56 443.44,18.54 444.36,17.8C445.28,17.07 446.54,16.56 448.16,16.28C449.78,16 451.83,15.86 454.33,15.86C456.83,15.86 458.89,16 460.5,16.28C462.12,16.56 463.38,17.07 464.3,17.8C465.22,18.53 465.89,19.56 466.32,20.88C466.75,22.2 467.02,23.88 467.12,25.93C467.22,27.98 467.27,30.49 467.27,33.45C467.27,36.42 467.22,38.93 467.12,40.98C467.02,43.03 466.75,44.71 466.32,46.03C465.89,47.35 465.21,48.37 464.3,49.11C463.38,49.84 462.12,50.35 460.5,50.63C458.88,50.91 456.83,51.05 454.33,51.05ZM454.33,47.35C456.03,47.35 457.41,47.29 458.48,47.17C459.55,47.05 460.39,46.78 461,46.35C461.62,45.92 462.07,45.2 462.35,44.2C462.63,43.2 462.82,41.83 462.9,40.1C462.98,38.37 463.02,36.15 463.02,33.45C463.02,30.75 462.98,28.53 462.9,26.8C462.82,25.07 462.63,23.7 462.35,22.7C462.07,21.7 461.62,20.98 461,20.55C460.38,20.12 459.54,19.84 458.48,19.73C457.41,19.61 456.05,19.55 454.38,19.55C452.71,19.55 451.33,19.61 450.23,19.73C449.13,19.85 448.27,20.12 447.65,20.55C447.03,20.98 446.58,21.7 446.3,22.7C446.02,23.7 445.84,25.07 445.77,26.8C445.7,28.53 445.67,30.75 445.67,33.45C445.67,36.15 445.7,38.37 445.77,40.1C445.84,41.83 446.01,43.2 446.3,44.2C446.58,45.2 447.03,45.92 447.65,46.35C448.27,46.78 449.12,47.06 450.2,47.17C451.29,47.29 452.66,47.35 454.33,47.35Z" style="fill:rgb(55,65,80);fill-rule:nonzero;"/>
    </g>
</svg>
