<?xml version="1.0" encoding="UTF-8" standalone="no"?>
<!DOCTYPE svg PUBLIC "-//W3C//DTD SVG 1.1//EN" "http://www.w3.org/Graphics/SVG/1.1/DTD/svg11.dtd">
<svg width="100%" height="100%" viewBox="0 0 152 152" version="1.1" xmlns="http://www.w3.org/2000/svg" xmlns:xlink="http://www.w3.org/1999/xlink" xml:space="preserve" xmlns:serif="http://www.serif.com/" style="fill-rule:evenodd;clip-rule:evenodd;stroke-linejoin:round;stroke-miterlimit:2;">
    <g transform="matrix(1,0,0,1,-0.519476,-0.524955)">
        <g transform="matrix(1,0,0,1,-299.769,-455.594)">
            <g id="path3103" transform="matrix(0.90683,0,0,0.90705,35.033,49.4363)">
                <path d="M376.01,607.088C417.559,607.088 451.242,573.406 451.242,531.857C451.242,490.308 417.559,456.626 376.01,456.626C334.462,456.626 300.779,490.308 300.779,531.857C300.779,573.406 334.462,607.088 376.01,607.088" style="fill:none;fill-rule:nonzero;stroke:white;stroke-width:16.54px;"/>
            </g>
        </g>
        <g transform="matrix(1,0,0,1,-299.769,-455.594)">
            <path id="path3107" d="M339.309,491.51L353.183,491.51L353.183,536.208C353.183,539.05 354.052,541.499 358.005,541.499C361.641,541.499 362.748,538.34 362.748,535.813L362.748,491.51L376.622,491.51L376.622,534.391C376.622,544.423 372.128,552.168 357.926,552.168C346.167,552.168 339.309,546.557 339.309,534.391L339.309,491.51" style="fill:white;fill-rule:nonzero;"/>
        </g>
        <g transform="matrix(1,0,0,1,-299.769,-455.594)">
            <path id="path3109" d="M382.084,572.213L382.084,512.934L395.958,512.934L395.958,560.337L412.944,560.337L412.944,572.213L382.084,572.213" style="fill:white;fill-rule:nonzero;"/>
        </g>
        <g transform="matrix(1,0,0,1,-299.769,-455.594)">
            <path id="path3111" d="M356.227,560.249L357.666,560.249C358.355,560.249 359.598,560.286 359.623,561.871C359.647,563.48 358.318,563.554 357.839,563.566L356.227,563.566L356.227,560.249M356.227,564.492L358.011,564.492C359.216,564.492 359.586,565.278 359.586,566.199C359.586,566.813 359.684,567.955 359.905,568.543L361.097,568.543L361.097,568.335C360.851,568.335 360.778,567.93 360.741,567.758C360.642,567.07 360.581,566.395 360.544,565.707C360.397,564.479 360.102,564.097 358.909,563.986L358.909,563.961C359.979,563.813 360.642,563.038 360.679,561.957C360.741,559.83 359.512,559.324 357.58,559.324L355.205,559.324L355.205,568.544L356.227,568.544L356.227,564.492" style="fill:white;fill-rule:nonzero;"/>
        </g>
        <g transform="matrix(1,0,0,1,-299.769,-455.594)">
            <path id="path3113" d="M357.987,571.913C362.394,571.913 365.967,568.341 365.967,563.934C365.967,559.527 362.394,555.954 357.987,555.954C353.58,555.954 350.008,559.527 350.008,563.934C350.008,568.341 353.58,571.913 357.987,571.913Z" style="fill:none;fill-rule:nonzero;stroke:white;stroke-width:0.89px;stroke-linejoin:miter;stroke-miterlimit:4;"/>
        </g>
    </g>
</svg>
